<?xml version="1.0" encoding="utf-8"?>
<!-- Generator: Adobe Illustrator 21.1.0, SVG Export Plug-In . SVG Version: 6.00 Build 0)  -->
<svg version="1.1"
	 id="svg2" inkscape:export-filename="/home/fabius/Documenti/FlyType/png/flytype-128.png" inkscape:export-xdpi="37.478249" inkscape:export-ydpi="37.478249" inkscape:version="0.48.5 r10040" sodipodi:docname="fly-type.svg" xmlns:cc="http://creativecommons.org/ns#" xmlns:dc="http://purl.org/dc/elements/1.1/" xmlns:inkscape="http://www.inkscape.org/namespaces/inkscape" xmlns:rdf="http://www.w3.org/1999/02/22-rdf-syntax-ns#" xmlns:sodipodi="http://sodipodi.sourceforge.net/DTD/sodipodi-0.dtd" xmlns:svg="http://www.w3.org/2000/svg"
	 xmlns="http://www.w3.org/2000/svg" xmlns:xlink="http://www.w3.org/1999/xlink" x="0px" y="0px" viewBox="0 0 540 540"
	 style="enable-background:new 0 0 540 540;" xml:space="preserve">
<style type="text/css">
	.st0{fill:none;stroke:#000000;stroke-width:7.7492;}
	.st1{fill:none;stroke:#000000;stroke-width:6.8964;}
	.st2{fill:#FFF1F1;}
	.st3{fill:#FFD6D6;}
	.st4{stroke:#000000;stroke-width:0.8649;}
	.st5{fill:#295F9A;}
	.st6{fill:#5A7997;}
	.st7{fill:#C7D6E5;}
	.st8{stroke:#000000;stroke-width:0.7;}
	.st9{display:none;}
	.st10{display:inline;fill:#5A9761;stroke:#000000;stroke-width:3;}
	.st11{fill:#D9DEE6;}
	.st12{fill:#FFFFFF;}
	.st13{stroke:#000000;}
</style>
<g id="Zampe">
	<path class="st0" d="M298,440.1c0,0-36.6,40.7-35,51.7c0.9,6.4,13.1,16.9,23.1,24.5c7.2,5.5-3.1,21.4-3.1,21.4"/>
	<path class="st0" d="M251,420.2c0,0-31.4,10.2-35.9,23.9c-2.5,7.6,3.1,28.3-0.4,42c-2.8,10.9-14.9,16-14.9,16"/>
	<path class="st0" d="M224.3,385.5c-14.5,4.4-41.3,7.6-48.2,20.4c-4,7.4-8,26.6-17.3,37.3c-6.9,7.9-20.3,9-20.3,9"/>
	<path class="st1" d="M431.5,371.3c0,0,37.4,3.4,44.3,9.8c3.8,3.5,4.5,14.4,4.4,23.5c-0.1,7.5,11.3,11.4,11.3,11.4"/>
	<path class="st0" d="M442.4,341.2c0,0,25.5-3,35.5,1.8c6.4,3.1,15.8,16.9,21.6,26.1c3.1,5,17.1,3.8,17.1,3.8"/>
</g>
<g id="Ali">
	<g id="Sinistra">
		<path id="Riempimento_1_" inkscape:connector-curvature="0" class="st2" d="M227.5,254.2L47.4,184.9c0,0-18-9.1-19.9-15.5
			s5.9-53.3,12.1-66.6c6.2-13.2,41.6-46.4,50.5-48.2C99,52.9,204.4,136,221.3,157.5s30.1,56.2,32.8,68.9"/>
		<path id="Bordo_Int_1_" inkscape:connector-curvature="0" class="st3" d="M62.6,73.5c-9.5,9.3-18.1,19.2-20.9,25.2
			c-6.1,13.2-14,60.1-12.1,66.5s19.9,15.5,19.9,15.5l174.7,75.9l4.7-4.9L54.4,175.8c0,0-18-9.1-19.9-15.5s5.9-53.3,12.1-66.6
			C48.8,88.8,55.1,81.2,62.6,73.5L62.6,73.5z"/>
		<path id="Contorno" inkscape:connector-curvature="0" class="st4" d="M226.3,257.4c0,0-31.4-10.7-69.3-24.4
			c-37.9-13.7-82.4-30.3-108.1-41.8c-1.1-0.5-2.3-1-3.7-1.7c-2.7-1.7-5.8-3.8-9.4-6.1c-2.3-1.6-4.7-3.5-7.1-5.8
			c-0.9-0.9-1.9-2-2.9-3.2c-0.7-0.9-1.4-2.2-1.9-3.8c-0.3-1-0.3-1.9-0.3-2.5c0-1,0-1.9,0.1-2.8c0.2-2.5,0.4-4.9,0.8-7.3
			c0.9-6.3,2-12.9,3.3-19.6c0.3-1.7,0.7-3.5,1-5.2c1-5,2-10.2,3.3-15.7c0.7-2.9,1.4-5.9,2.2-8.9c0.6-2.2,1.3-4.5,2.3-6.9
			s2.4-4.5,3.7-6.5c1.7-2.6,3.6-5.1,5.6-7.5c4.4-5.4,9.3-10.9,14.7-16.4c4.7-4.7,9.7-9.5,15.5-14.2c2-1.6,4.2-3.3,6.7-4.8
			c1.3-1,3.3-2.1,6.2-2.8c1.7-0.2,2.9-0.1,3.4,0.1c1,0.2,1.8,0.5,2.5,0.8c2,0.8,3.8,1.7,5.4,2.7c5.1,2.8,10,6.1,14.9,9.4
			c4.1,2.8,8.2,5.7,12.3,8.8c10.2,7.6,19.6,15,28.5,22.1c15.9,12.7,29.9,24.4,42.1,35.3c5.8,5.2,11.3,10.2,16.3,15
			c2.1,2,4.1,4.1,6,6.2c1.5,1.6,3,3.3,4.4,5.1c5.6,7.3,9.9,14.5,13.4,21.1s6.2,12.6,8.4,17.9c3.2,7.4,5.4,13.6,7,18.4
			c0.7,2.2,1.4,4.2,1.9,5.9c0.5,1.7,0.9,3.1,1.1,4.3c0.6,2.3,0.7,3.4,0.7,3.4s-0.3-1.1-1-3.4c-0.4-1.1-0.8-2.5-1.4-4.2
			s-1.4-3.6-2.3-5.8c-1.9-4.7-4.5-10.7-8.1-17.9c-2.6-5.1-5.6-10.9-9.4-17.2c-3.8-6.3-8.3-13-14.1-19.8c-1.3-1.6-2.8-3-4.3-4.5
			c-2-1.9-4-3.8-6.2-5.7c-5.1-4.6-10.8-9.2-16.8-14.1c-12.5-10.2-27-21.2-43.2-33.2c-9.1-6.7-18.8-13.7-29.1-20.7
			c-4.2-2.9-8.3-5.6-12.3-8.3c-4.9-3.2-9.5-6.3-14.1-8.9c-1.5-0.9-2.9-1.6-4.1-2.1c-0.4-0.2-0.7-0.3-0.8-0.3c-0.2,0.1,0.1,0,1-0.1
			c-0.5,0-1.4,0.6-2.8,1.3c-2,1.1-3.9,2.5-5.9,3.9c-5.6,4-10.7,8.3-15.5,12.6c-5.6,4.9-10.7,9.8-15.3,14.6c-2.1,2.2-4,4.4-5.8,6.6
			c-1.4,1.8-2.6,3.4-3.5,5.2c-1,1.9-1.7,3.9-2.5,6c-1,2.8-1.8,5.7-2.6,8.5c-1.5,5.4-2.6,10.7-3.5,15.7c-0.3,1.6-0.5,3.3-0.8,4.9
			c-1,6.7-1.6,13.3-1.8,19.4c-0.1,2.4-0.1,4.7,0,6.8c0,0.8,0.1,1.5,0.2,2.2c0.1,0.5,0.1,0.8,0.2,0.7c0.1,0.2,0.4,0.5,0.9,1
			c0.6,0.6,1.4,1.2,2.2,1.8c2.1,1.5,4.3,2.8,6.5,3.9c3.5,1.6,6.6,3.1,9.1,4.4c1.4,0.5,2.7,0.9,3.8,1.3c13,4.8,30.2,11.9,48.7,20
			c18.6,8.1,38.5,17,56.8,25.4C196,242.9,226.3,257.4,226.3,257.4L226.3,257.4z"/>
	</g>
	<g id="Destra">
		<path id="Riempimento" inkscape:connector-curvature="0" class="st2" d="M338.6,201.2c0,0,10.6-52.9,9.1-64.3S319,6.7,311.8,3.5
			c-7.2-3.1-52.5,12.9-60.6,19.7s-48,62.2-48.5,68.4c-0.5,6.2,93.4,102.1,97.4,113.7"/>
		<path id="Bordo_Int" inkscape:connector-curvature="0" class="st3" d="M316.7,3.8c-11-0.8-51.2,13.7-58.8,20.1
			c-8.1,6.8-48,62.2-48.5,68.4s93.4,102.1,97.4,113.7l3.3-0.4c-0.3-0.7-0.7-1.4-1.4-2.4c-0.9-1.3-2.1-3-3.6-4.9
			c-2.9-3.7-6.9-8.4-11.6-13.8c-9.4-10.7-21.5-24-33.4-37.1s-23.8-26-32.6-36.1c-4.4-5-8-9.3-10.6-12.6c-1.3-1.6-2.2-3-2.9-4
			c-0.7-1-1-1.8-1-2.2c0.1-0.8,0.8-2.3,1.9-4.4c1.2-2.1,2.8-4.8,4.8-7.9c3.9-6.2,9.2-13.9,14.8-21.6c5.5-7.7,11.3-15.5,16.2-21.7
			c2.4-3.1,4.7-5.9,6.5-8.1c1.9-2.2,3.4-3.8,4.4-4.6c1-0.9,2.6-1.9,4.6-2.9c2-1.1,4.5-2.3,7.2-3.5c5.5-2.4,12.1-5,18.8-7.2
			c3.3-1.1,6.6-2.2,9.7-3.1c3.1-0.9,6.1-1.7,8.8-2.3c2.7-0.6,5.1-1,7-1.1c0.2,0,0.4,0,0.6,0C318,3.9,317.4,3.8,316.7,3.8L316.7,3.8z
			"/>
		<path id="Bordo_Est" inkscape:connector-curvature="0" class="st4" d="M335.3,200.6L335.3,200.6
			C335.3,200.6,335.3,200.5,335.3,200.6L335.3,200.6c0-0.1,0-0.1,0-0.2s0-0.3,0.1-0.4c0.1-0.4,0.1-1,0.3-1.7
			c0.2-1.4,0.5-3.5,0.9-6.2c0.7-4.9,1.7-11.5,2.7-19.5c0.8-6.5,1.8-13.7,2.5-21.4c0.2-2.8,0.5-5.7,0.5-8.5c0-2,0.1-3.7-0.2-5l0,0
			c-0.1-0.9-0.4-1.9-0.6-3c-0.4-1.8-0.8-3.6-1.2-5.4c-1.2-5.3-2.5-10.7-3.8-16.2c-3.7-15.5-7.5-31-10.5-44.4
			c-1.8-7.7-3.3-14.6-4.4-20.6c-1-4.9-2.5-13-4.9-22.8c-1.1-4.6-2.4-9.5-4.1-14.3c-0.5-1.4-1-2.8-1.7-4c-0.2-0.4-0.4-0.7-0.5-0.9
			c-0.2-0.1-0.1-0.1,0.3,0.2c-0.1-0.1-0.4-0.1-0.8-0.2c-0.6-0.1-1.4-0.1-2.1,0c-1.5,0.1-3,0.3-4.5,0.6c-0.7,0.1-1.4,0.3-2.2,0.4
			c-5.7,1.2-11.8,3.2-18.2,5.6c-5.8,2.2-11.9,4.8-18.2,7.9c-2.3,1.1-4.6,2.3-6.8,3.6c-1.5,0.9-2.9,1.7-3.8,2.6
			c-0.4,0.4-0.9,0.9-1.4,1.5l0,0c-0.7,0.9-1.5,1.8-2.3,2.7c-2,2.6-4,5.3-6.1,8.1c-5,6.8-10.1,14.1-15.6,21.9
			c-3.7,5.2-7.4,10.6-11.3,16.3c-1.1,1.7-2.3,3.4-3.4,5.1c-1.7,2.6-3.3,5.1-4.6,7.5c-0.5,0.8-0.9,1.6-1.2,2.3
			c-0.2,0.6-0.3,0.6-0.1,0c-0.1-1.6-0.2-2.2-0.2-1.9c0,0.1,0.1,0.3,0.4,0.6c0.7,1.1,1.6,2.3,2.6,3.6c3.3,4.3,6.8,8.4,10.2,12.4
			c5.9,6.9,11.6,13.4,17,19.4c5.4,6,10.4,11.7,15.1,16.9c7.1,7.9,13.3,15,18.8,21.2c5.5,6.3,10.2,11.7,14.1,16.4
			c2.5,2.9,4.7,5.6,6.6,7.9c1.9,2.4,3.5,4.4,4.9,6.2c1.5,2,2.8,3.8,3.6,5.1c0.5,0.8,0.9,1.5,1.2,2.1c0.3,0.5,0.5,1,0.6,1.4
			s0.2,0.6,0.2,0.6s-0.1-0.2-0.2-0.5c-0.2-0.3-0.4-0.8-0.7-1.3c-0.4-0.5-0.8-1.2-1.4-1.9c-1-1.3-2.3-2.9-4-4.8
			c-1.5-1.7-3.3-3.6-5.4-5.8c-2.1-2.2-4.5-4.7-7.2-7.4c-4.3-4.4-9.3-9.5-15.2-15.4c-5.9-5.9-12.6-12.5-20.1-20
			c-5-5-10.3-10.3-16.1-16.1c-5.7-5.8-11.8-11.9-18.1-18.6c-3.7-3.8-7.5-7.9-11.2-12.3c-1.1-1.3-2.2-2.6-3.3-4.2
			c-0.3-0.5-0.7-1.1-1.1-1.8l0,0c-0.3-0.2-0.5-1.1-0.6-2.8c0.2-1.5,0.5-2.5,0.8-3c0.4-1.1,0.9-2.2,1.4-3.1c1.4-2.9,3-5.6,4.6-8.3
			c1-1.8,2.1-3.6,3.2-5.4c3.7-6,7.4-11.6,11.1-16.8c5.5-7.9,11.1-15.1,16.5-21.7c2.3-2.8,4.6-5.4,6.9-8c0.9-1,1.8-1.9,2.8-2.9l0,0
			c0.7-0.6,1.4-1.4,2.3-2.1c1.9-1.5,3.8-2.4,5.5-3.2c2.6-1.2,5.2-2.3,7.7-3.2c6.8-2.6,13.3-4.6,19.4-6.4c6.7-2,13-3.6,19-5
			c0.8-0.2,1.7-0.4,2.5-0.5c1.6-0.3,3.2-0.6,4.8-0.8c0.9-0.1,1.9-0.2,2.9-0.1c0.7,0,1.6,0.1,2.6,0.5c0.9,0.5,1.5,0.9,1.7,1.3
			c0.5,0.6,0.9,1.1,1.2,1.6c1,1.5,1.7,3.1,2.4,4.5c2.4,5,4.4,9.9,6.2,14.3c3.9,9.5,7.1,17.3,8.4,22.1c1.7,5.9,3.4,12.9,5.1,20.7
			c3,13.5,5.8,29.3,8.4,45.2c0.9,5.5,1.7,11.1,2.5,16.6c0.3,1.9,0.5,3.8,0.7,5.7c0.1,1.1,0.3,2.3,0.3,3.5l0,0
			c0.1,2.3-0.1,4.4-0.4,6.4c-0.4,3-0.9,6-1.5,8.8c-1.5,7.8-3.3,15-4.9,21.3c-2,7.8-3.8,14.4-5.2,19.1c-0.7,2.6-1.3,4.6-1.7,6
			c-0.2,0.7-0.4,1.3-0.5,1.7c-0.1,0.2-0.1,0.3-0.1,0.4C335.3,200.5,335.3,200.5,335.3,200.6C335.3,200.5,335.3,200.6,335.3,200.6
			L335.3,200.6L335.3,200.6z"/>
	</g>
</g>
<g id="Corpo">
	<path id="path20" inkscape:connector-curvature="0" class="st5" d="M235.6,202.8c-37.2,19.2-78.8,65.6-83.9,125.5
		c-6.3,73.4,100.9,140.6,168.8,135.6c31.4-2.3,61.3-14.3,85.8-33.1c-1.7,0.9-3.6-26.9-5-26.2c-3.8,2-7.6,3.7-11.5,5.3s-7.9,3-12,4.2
		s-8.2,2.2-12.4,2.9c-4.2,0.8-8.4,1.3-12.7,1.6c-3.5,0.3-7.1,0.3-10.9,0.1c-3.7-0.2-7.6-0.6-11.5-1.3s-7.8-1.5-11.8-2.6
		s-8-2.3-12.1-3.8c-4-1.5-8.1-3.1-12.1-5c-4-1.8-8-3.9-11.9-6c-3.9-2.2-7.8-4.5-11.5-7c-3.8-2.5-7.5-5.1-11-7.9
		c-3.6-2.8-7-5.7-10.3-8.7s-6.5-6.2-9.4-9.4c-3-3.2-5.7-6.6-8.3-10c-2.6-3.4-4.9-7-7-10.6s-4-7.3-5.6-11c-0.8-1.9-1.5-3.8-2.2-5.7
		c-0.7-1.9-1.2-3.8-1.8-5.7c-0.5-1.9-0.9-3.9-1.3-5.8c-0.4-2-0.6-3.9-0.8-5.9c-0.2-2-0.3-3.9-0.3-5.9s0-4,0.2-6
		c0.3-4,0.8-7.9,1.5-11.8c0.7-3.8,1.5-7.6,2.5-11.3c1-3.7,2.1-7.3,3.4-10.8s2.7-6.9,4.2-10.3c1.5-3.3,3.2-6.6,4.9-9.8
		c1.7-3.2,3.6-6.2,5.5-9.1c1.9-3,3.9-5.8,6-8.6c2.1-2.7,4.2-5.4,6.4-7.9c2.2-2.5,4.5-4.9,6.8-7.2c2.3-2.3,4.6-4.5,7-6.6
		C262.5,205.9,234.1,203.9,235.6,202.8L235.6,202.8z"/>
	<path id="path22" inkscape:connector-curvature="0" class="st6" d="M236.3,201.1c-1.5,1.2-3,2.2-4.5,3.5c-2.9,2.4-5.3,7.4-8.1,10
		c-2.8,2.6-5.5,5.4-8.2,8.3s-5.3,5.9-7.8,9.1c-2.5,3.1-5,6.4-7.3,9.8s-4.5,6.9-6.6,10.5s-4.1,7.4-5.9,11.2
		c-1.8,3.8-3.5,7.7-5.1,11.8c-1.5,4-2.9,8.2-4.1,12.4c-1.2,4.2-2.2,8.6-3,13s-1.4,8.9-1.8,13.5c-0.2,2.3-0.3,4.6-0.3,6.9
		s0.2,4.5,0.4,6.8s0.5,4.5,1,6.8c0.4,2.2,1,4.5,1.6,6.7s1.3,4.4,2.1,6.6s1.7,4.4,2.6,6.5c1.9,4.3,4.2,8.5,6.8,12.7
		c2.6,4.1,5.4,8.2,8.5,12.1c3.1,3.9,6.5,7.8,10,11.5s7.4,7.3,11.4,10.8s8.1,6.8,12.5,10c4.3,3.2,8.8,6.2,13.4,9s9.2,5.5,14,8
		c4.7,2.5,9.6,4.8,14.4,6.9c4.8,2.1,9.7,4,14.6,5.7s9.8,3.1,14.6,4.4c4.8,1.2,9.6,2.2,14.3,3c4.7,0.7,9.3,1.3,13.9,1.5
		c4.5,0.2,8.9,0.2,13.2-0.1c5.1-0.4,10.3-1,15.3-1.9s10-2,15-3.4c4.9-1.4,9.8-3,14.5-4.8s9.4-3.9,14-6.1c1.7-0.8,3.3-1.9,5-2.8
		c39.6-30.5,64.7-79.3,57.8-135.1c-9.3-75.4-111.2-134-204-103.4C252.7,193.7,244.6,196.8,236.3,201.1L236.3,201.1z"/>
	<path id="path24" inkscape:connector-curvature="0" class="st7" d="M311.9,184c-17.4-0.1-35.1,2.5-52.5,8.3
		c-7.4,1.5-15.4,4.5-23.8,8.8c-1.5,1.2-3,2.2-4.5,3.5c-11.5,6.8-25.7,15.5,10.6,0.1c4-1.5,7.8-2.6,11.5-3.3c2.9-1,5.8-1.8,8.7-2.6
		c2.9-0.8,5.8-1.5,8.8-2.1c5.8-1.2,11.7-2.1,17.6-2.7c5.8-0.6,11.7-0.9,17.5-0.8c5.8,0,11.5,0.3,17.2,0.9s11.3,1.5,16.8,2.6
		s11,2.5,16.3,4.2c5.3,1.6,10.5,3.5,15.6,5.6s10,4.4,14.8,7c4.8,2.5,9.4,5.3,13.8,8.2c4.4,2.9,8.7,6,12.7,9.3s7.8,6.7,11.4,10.4
		c3.6,3.6,6.9,7.4,10,11.3s5.9,8,8.4,12.1c2.5,4.2,4.8,8.4,6.7,12.8c1.9,4.4,3.5,8.9,4.8,13.4c0.6,2.3,1.2,4.6,1.7,6.9
		s0.9,4.7,1.2,7c0.4,3.5,0.7,7,0.9,10.4c0.2,3.4,0.2,6.8,0.2,10.2c-0.1,3.4-0.2,6.7-0.5,10s-0.7,6.6-1.2,9.8
		c-0.5,3.2-1.1,6.4-1.8,9.5c-0.7,3.1-1.5,6.2-2.4,9.3c-0.9,3.1-1.9,6.1-3,9.1s-2.3,5.9-3.6,8.8c-1.3,2.9-2.7,5.7-4.1,8.5
		s-3,5.5-4.7,8.1c-0.4,0.6-0.8,1.2-1.2,1.9c21.3-28.6,32.6-64.7,27.7-104.5C455.9,234.4,387.2,184.2,311.9,184L311.9,184z"/>
	<path id="path26" inkscape:connector-curvature="0" class="st8" d="M262,191.1c0,0,1.8-0.7,5.1-1.7c3.3-1.1,8.2-2.5,14.4-4
		s13.9-2.8,22.7-3.6s18.7-1.1,29.4-0.3c10.3,0.8,21.4,2.5,32.6,5.5s22.6,7.1,33.6,12.6c9.6,4.8,18.9,10.5,27.4,17.2
		s16.4,14.3,23,22.6c6.8,8.4,12.3,17.6,16.4,27c4,9.4,6.5,19.1,7.6,28.4c1.5,13.4,0.9,25.8-0.7,36.2c-1.1,7-3.3,17.5-7.8,29.6
		c-3.1,8.2-7.3,17.1-12.8,26.1c-5.5,9-12.2,18.1-20,26.6l0,0c-2.2,2.4-4.6,4.8-7,7.2c-5.6,5.4-11.8,10.8-18.7,15.9
		c-6.9,5.1-14.6,10.1-23.1,14.5c-8.4,4.4-17.5,8.3-27.6,11.5c-10,3.2-20.9,5.5-32.5,6.7c-9.2,0.9-18.8,0.5-28.4-0.9
		c-9.9-1.4-20-3.9-30.1-7.2c-16.1-5.4-32.5-13.2-48.4-23.6c-3.4-2.2-6.6-4.5-9.8-6.9c-9.1-6.8-17.5-14.1-24.8-21.8
		c-7.4-7.8-13.7-16-18.9-24.5c-5.4-8.8-9.4-18-12-27.3c-2.7-9.8-3.5-19.7-2.6-29.1c0.9-10,2.9-19.4,5.4-28.1
		c2.6-8.8,5.8-16.9,9.5-24.3c4.2-8.6,8.9-16.3,13.8-23.2c4.9-6.9,10-13,15.1-18.4c6.3-6.7,12.5-12.3,18.5-17.1
		c6-4.7,11.6-8.6,16.8-11.7c5.4-3.3,10.3-5.8,14.6-7.7c4.3-1.9,8-3.2,11-4.1s5.2-1.5,6.7-1.8s2.2-0.5,2.2-0.5s-0.7,0.2-2.2,0.6
		s-3.7,1.1-6.6,2.1c-2.9,1.1-6.5,2.5-10.7,4.6s-8.9,4.9-14.1,8.3c-5,3.3-10.4,7.4-16,12.3s-11.5,10.7-17.4,17.5
		c-4.7,5.5-9.4,11.6-13.9,18.5s-8.7,14.5-12.5,22.9c-3.2,7.3-6,15.2-8.2,23.7s-3.7,17.5-4.2,27c-0.5,8.5,0.6,17.4,3.3,26.2
		c2.6,8.4,6.6,16.7,11.8,24.7c5.1,7.8,11.3,15.2,18.4,22.3c7.1,7,15.2,13.7,24,19.8c3.1,2.1,6.2,4.2,9.5,6.2
		c15.2,9.5,30.6,16.7,45.7,21.9c9.4,3.3,18.7,5.8,27.8,7.4c8.8,1.5,17.5,2.2,25.7,1.8c10.8-0.5,21.1-2.2,30.8-4.6
		c9.6-2.4,18.6-5.6,26.8-9.4c8.4-3.9,16.1-8.3,23-13.1s13-10,18.3-15.3c2.2-2.2,4.3-4.5,6.2-6.8l0,0c7.3-8.5,13.2-17.7,17.6-26.6
		c4.4-8.9,7.5-17.7,9.5-25.5c1.5-5.8,2.5-11.2,3.1-15.9c0.7-4.7,1-8.7,1.4-12c1-9.5,1.3-20.8,0-33.1c-0.8-8-2.8-16.4-6.2-24.8
		s-8-16.8-13.8-24.6c-5.7-7.8-12.5-15-20.1-21.6s-16-12.4-24.7-17.4c-10-5.7-20.5-10.4-31.1-13.9c-10.5-3.5-21-5.9-30.9-7.3
		c-10.2-1.5-19.9-1.9-28.6-1.8s-16.3,0.9-22.6,1.9c-6.3,0.9-11.3,2-14.6,2.8C263.8,190.6,262,191.1,262,191.1L262,191.1z"/>
</g>
<g id="Macchie" class="st9">
	<path id="path70" inkscape:connector-curvature="0" class="st10" d="M230.1,375.5c-7.1,0-10.3,9.3-8.7,15.3
		c1.9,7.1,5.8,11.2,12.9,11.2s12.9-5,12.9-11.2C247.2,384.6,237.2,375.5,230.1,375.5L230.1,375.5z"/>
	<path id="path72" inkscape:connector-curvature="0" class="st10" d="M267.2,384.6c-3.3,0-6.8,2.3-6.1,5.1c0.9,3.3,2.7,5.2,6,5.2
		s6-2.3,6-5.2C273,386.8,270.5,384.6,267.2,384.6z"/>
	<path id="path74" inkscape:connector-curvature="0" class="st10" d="M256.7,401.8c-3.3,0-6.5,4.8-5.7,7.6c0.9,3.3,2.7,5.2,6,5.2
		s6-2.3,6-5.2S260,401.8,256.7,401.8L256.7,401.8z"/>
</g>
<g id="Occhi">
	<path id="path28" inkscape:connector-curvature="0" class="st11" d="M402.5,204.4c60-4.6,81.5,20.6,86.1,57.6
		c5.5,44.4-44.6,81.7-85.1,84.7c-33.4,2.5-71.6-32.6-68.5-68.7C338.2,242,382.4,206,402.5,204.4L402.5,204.4z"/>
	<path id="path30" inkscape:connector-curvature="0" class="st12" d="M409.3,205c-3.5,0.1-7,0.2-10.8,0.5c-13.2,1-36.8,17-52.4,38.1
		c2.1-2.4,4.2-4.9,6.4-7.1c3.5-3.4,7.1-6.6,10.8-9.4c3.6-2.8,7.2-5.3,10.8-7.4c3.5-2.1,6.9-3.8,10-5c1.6-0.6,3.1-1.1,4.5-1.4
		c1.4-0.4,2.8-0.6,4-0.7c3.7-0.3,7.4-0.4,10.8-0.5c3.5-0.1,6.7,0,9.9,0.1s6.2,0.4,9.1,0.8s5.6,0.9,8.3,1.4c2.6,0.6,5.1,1.2,7.5,2
		s4.6,1.7,6.8,2.6c2.1,1,4.1,2,6,3.1s3.7,2.3,5.4,3.6c1.7,1.3,3.2,2.7,4.7,4.1c1.5,1.5,2.8,3,4.1,4.6s2.5,3.3,3.5,5
		c1.1,1.7,2.1,3.6,3,5.4s1.7,3.8,2.5,5.8c0.7,2,1.4,4.1,1.9,6.2c1.1,4.2,2,8.7,2.6,13.3c0.3,2.8,0.5,5.5,0.4,8.2s-0.3,5.4-0.8,8
		s-1.1,5.2-1.9,7.8c-0.8,2.5-1.8,5-3,7.5s-2.4,4.9-3.9,7.2c-1.3,2.1-2.6,4-4.1,6c13.3-14.4,21.5-32.4,19.1-51.8
		C480.3,228.4,461.1,204,409.3,205L409.3,205z"/>
	<path id="path32" inkscape:connector-curvature="0" class="st13" d="M400,205.2c0,0,1-0.1,2.9-0.4c1.9-0.2,4.7-0.5,8.2-0.8
		s7.8-0.5,12.6-0.4c4.8,0.1,10.3,0.4,16.1,1.2c4.6,0.7,9.5,1.8,14.5,3.4s9.9,4,14.6,7.1c3.8,2.5,7.4,5.6,10.5,9s5.8,7.2,7.9,11.3
		c4.7,8.9,7,18.5,8,27.2c0.6,5.8,0.3,11.3-0.6,16.3c-0.9,5-2.4,9.5-4.2,13.3c-0.7,1.4-1.5,3.2-2.6,5c-2.1,3.7-5.1,8.1-9,12.7
		s-8.6,9.3-13.9,13.8l0,0c-3,2.5-6.2,5-9.6,7.4c-5.8,4.1-12.3,8.2-19.8,12c-4.5,2.3-9.3,4.4-14.7,6.2c-5.4,1.8-11.2,3.3-17.6,4
		c-4.5,0.5-9.2,0.4-14-0.3c-4.8-0.7-9.6-2-14.3-3.9c-8.8-3.5-17.4-9-24.8-16.4c-0.5-0.5-0.9-0.9-1.4-1.4c-6.8-7.1-12.1-15-15.6-23.2
		c-2.1-4.9-3.5-9.8-4.3-14.7c-0.8-4.9-0.9-9.8-0.5-14.4c0.6-5.5,1.9-10.7,3.7-15.4c1.7-4.7,3.9-9,6.2-12.8l0,0
		c2.9-4.9,6.1-9.2,9.4-13c3.2-3.8,6.5-7.1,9.7-10.1c4.1-3.8,8.1-6.9,11.8-9.6c3.7-2.6,7.3-4.8,10.4-6.5c3-1.7,5.9-3,8.4-4
		s4.7-1.6,6.5-2s3.1-0.6,4-0.7C399.5,205.3,400,205.2,400,205.2s-0.4,0.1-1.3,0.2c-0.9,0.2-2.2,0.5-3.9,1c-1.7,0.5-3.8,1.3-6.1,2.5
		c-2.4,1.2-5,2.7-7.8,4.6c-2.9,1.9-6.2,4.3-9.5,7.2c-3.4,2.9-7,6.3-10.6,10.2c-2.8,3.1-5.7,6.5-8.5,10.4s-5.5,8.1-7.8,12.9
		c-1.9,3.7-3.5,7.8-4.8,12.1c-1.3,4.3-2.1,8.9-2.2,13.6c-0.1,4,0.3,8.1,1.3,12.2s2.5,8.3,4.5,12.3c3.5,6.8,8.4,13.3,14.7,19.1
		c0.4,0.4,0.8,0.8,1.3,1.2c6.8,6,13.9,10.6,21.2,13.7c7.6,3.3,15.3,5.1,22.4,4.9c5.6-0.1,10.9-0.8,16-1.9c5-1.1,9.8-2.5,14.2-4.2
		c7.6-2.9,14.1-6.4,19.5-10.5c3-2.3,5.8-4.8,8.3-7.5l0,0c4.5-4.8,8-9.9,10.6-14.5c2.5-4.7,4.1-9,5.2-12.3c0.6-1.7,1-3.2,1.4-4.4
		c1.1-3.2,2.1-6.8,2.8-10.7c0.7-4,1.1-8.3,0.8-12.8c-0.6-7.7-1.8-15.8-5-23.4c-2.8-6.7-7.3-13.1-13.1-18c-3.6-3-7.6-5.5-11.8-7.6
		c-4.2-2-8.5-3.6-12.8-4.9c-5.3-1.6-10.5-2.6-15.2-3.3c-4.7-0.7-8.9-1.2-12.3-1.4c-3.5-0.3-6.3-0.4-8.2-0.5
		C401,205.3,400,205.2,400,205.2L400,205.2z"/>
	<path id="path52" inkscape:connector-curvature="0" class="st11" d="M287.7,224.1c45.6-15,95.5,12.6,100.1,49.6
		c5.5,44.4-30.1,79.7-70.5,82.7c-33.4,2.5-86.1-30.6-83-66.7C237.4,253.7,268,228.1,287.7,224.1L287.7,224.1z"/>
	<path id="path54" inkscape:connector-curvature="0" class="st12" d="M309.1,220c-8.5,0-17.2,1.3-25.8,4.2
		c-13.3,2.7-31.4,15.4-42.8,34.4c1.3-1.7,2.6-3.5,4-5.1c2.6-2.9,5.4-5.4,8.2-7.8c2.8-2.3,5.7-4.4,8.5-6.2s5.7-3.2,8.4-4.4
		c2.7-1.2,5.3-2,7.8-2.5c2.9-0.9,5.7-1.7,8.6-2.3c2.9-0.6,5.8-1.1,8.6-1.4c2.9-0.3,5.7-0.5,8.6-0.5c2.8,0,5.7,0.1,8.5,0.4
		s5.5,0.7,8.2,1.2s5.4,1.2,8,2s5.2,1.6,7.7,2.6s4.9,2.1,7.3,3.3c2.3,1.2,4.6,2.5,6.8,3.9c2.2,1.4,4.3,2.9,6.2,4.5s3.9,3.2,5.6,5
		c1.8,1.7,3.4,3.6,4.9,5.5s2.9,3.9,4.1,5.9s2.3,4.1,3.3,6.2s1.7,4.3,2.4,6.6c0.6,2.2,1.1,4.5,1.4,6.8c0.3,2.8,0.5,5.5,0.5,8.2
		s-0.1,5.3-0.4,7.9s-0.7,5.2-1.2,7.7s-1.2,5-2,7.4s-1.7,4.7-2.8,7c-1,2.1-2.1,4.2-3.3,6.3c11.3-14.3,17.4-32.7,14.9-53
		C379.7,243.6,346,219.8,309.1,220L309.1,220z"/>
	<path id="path56" inkscape:connector-curvature="0" class="st13" d="M287,223.5c0,0,0.9-0.4,2.5-0.9s4.1-1.4,7.2-2.2
		c3.1-0.8,7-1.6,11.4-2.1s9.5-0.7,14.9-0.4c5.3,0.3,10.9,1.1,16.6,2.5s11.6,3.5,17.2,6.2c4.9,2.4,9.7,5.3,14.2,8.7
		c4.4,3.4,8.5,7.3,12,11.6c3.6,4.4,6.4,9.2,8.5,14.1s3.4,10,3.9,14.9c0.7,6.9,0.2,13.2-0.8,18.6c-0.7,3.6-2.1,8.9-4.6,15
		c-1.7,4.1-4,8.6-6.9,13c-2.9,4.5-6.4,9-10.4,13.2l0,0c-1.1,1.2-2.3,2.4-3.5,3.6c-2.8,2.7-5.9,5.4-9.3,8s-7.2,5.1-11.3,7.5
		c-4.2,2.3-8.8,4.5-13.8,6.2c-5.1,1.8-10.6,3.1-16.5,3.8c-4.8,0.5-9.8,0.5-14.9-0.2c-5.1-0.6-10.2-1.8-15.3-3.5l0,0
		c-8.2-2.7-16.6-6.6-24.6-11.9c-1.7-1.1-3.3-2.3-4.9-3.5c-4.6-3.4-8.8-7.2-12.6-11.2c-3.7-4-7-8.2-9.6-12.6
		c-2.7-4.5-4.8-9.3-6.1-14.2c-1.4-5.1-1.8-10.3-1.3-15.3c0.6-5.5,1.7-10.6,3.2-15.3s3.4-9,5.5-13c4.2-7.9,9.1-14.2,13.9-19.3
		c3.2-3.4,6.4-6.2,9.4-8.5c3-2.4,5.9-4.3,8.6-5.8c2.7-1.6,5.3-2.9,7.5-3.9s4.1-1.6,5.7-2.1c1.5-0.5,2.7-0.7,3.5-0.9
		c0.8-0.2,1.2-0.2,1.2-0.2s-0.4,0.1-1.1,0.3c-0.8,0.2-1.9,0.6-3.4,1.2s-3.3,1.4-5.4,2.6c-2.1,1.1-4.4,2.6-6.9,4.4
		c-4.8,3.5-10.5,8.4-16.1,15.4c-4.2,5.2-8.3,11.6-11.6,19.2c-1.6,3.8-3.1,8-4.1,12.4c-1.1,4.4-1.7,9.1-1.9,14.1
		c-0.1,4.1,0.6,8.3,2,12.4c1.4,4,3.4,7.8,6,11.6c2.5,3.6,5.6,7.1,9.1,10.4s7.5,6.3,11.8,9.2c1.5,1,3,1.9,4.6,2.9
		c7.4,4.3,14.8,7.7,21.9,10.2l0,0c4.5,1.5,8.8,2.8,13,3.6c4.2,0.8,8.2,1.2,12.1,1.1c5.2-0.1,10.2-0.7,14.9-1.8
		c4.7-1,9.1-2.5,13.1-4.2c8.1-3.4,14.8-8,19.9-13.2c1-1.1,2-2.2,2.9-3.3l0,0c3.4-4.2,6-8.7,7.9-13.1s3-8.7,3.7-12.5
		c1-5.6,1-10.2,1.3-13.2c0.4-4.5,0.6-9.7,0.1-15.5c-0.3-3.6-1.1-7.4-2.5-11.4c-1.4-3.9-3.4-7.9-5.9-11.7c-2.5-3.7-5.6-7.3-9.1-10.6
		c-3.5-3.3-7.4-6.3-11.5-8.9c-4.7-3-9.7-5.5-14.7-7.5s-10.1-3.4-15-4.4c-5-1-9.8-1.5-14.1-1.6c-4.3-0.1-8.2,0-11.3,0.3
		c-3.2,0.3-5.7,0.7-7.4,1C287.9,223.3,287,223.5,287,223.5L287,223.5z"/>
	<path id="path58" inkscape:connector-curvature="0" d="M440.9,231.1c-10.5,0-15.4,12.5-15.4,22.7s4.1,19.5,14.7,19.5
		c10.5,0,20.5-10.4,20.5-20.6S451.5,231.1,440.9,231.1L440.9,231.1z"/>
	<path id="path60" inkscape:connector-curvature="0" d="M344.5,272.5c-10.5,0-22,11.1-22,21.3s7.1,20.6,17.6,20.6
		s20.5-10.4,20.5-20.6S355,272.5,344.5,272.5z"/>
	<path id="path68" inkscape:connector-curvature="0" class="st12" d="M455.8,239.4c-4,0-5,6.1-5,10s3.4,6.9,7.4,6.9s5.1-4.8,5.1-8.7
		S459.8,239.4,455.8,239.4L455.8,239.4z"/>
	<path id="path66" inkscape:connector-curvature="0" class="st12" d="M354.9,275.9c-3.5,0-5.4,7-5.4,10.3s2.3,6.8,5.8,6.8
		s6.7-3.4,6.7-6.8S358.3,275.9,354.9,275.9L354.9,275.9z"/>
</g>
<path id="path34" inkscape:connector-curvature="0" class="st6" d="M425.2,492.2l-10.9-39.1L406,429l-27-34.1l28-3l13.5,35.1
	l16.6,27.6l7.3,11l4.7,15"/>
<path id="path36" inkscape:connector-curvature="0" class="st5" d="M374.9,390.9l32.1,38.2l8.3,24.1l10.9,39.1l6-2.9l-10.1-36.2
	l-8.3-24.1l-31.5-35.3L374.9,390.9z"/>
<path id="path38" inkscape:connector-curvature="0" class="st7" d="M408.7,392.4l-1.6,1.6l12,35.5l16.6,27.6l7.3,11l4.5,14.6
	l3.2-1.6l-4.7-15l-7.3-11l-16.6-27.6L408.7,392.4z"/>
<path id="path40" inkscape:connector-curvature="0" class="st13" d="M425.6,494.7c0,0,14.8-7,19.9-7.4s12.4-1,12.4-1
	s-7.5-27.8-20.3-21.9C424.9,470.5,425.6,494.7,425.6,494.7L425.6,494.7z"/>
<path id="path62" inkscape:connector-curvature="0" d="M425.6,495.6c0,0-6.1-15.2-9.5-27.4c-1-3.4-1.9-6.5-2.3-9
	c-0.4-2.3-1.2-7.6-3.2-12.9c-0.3-0.7-0.6-1.4-0.9-2.1c-1.2-2.6-2.9-5.4-4.8-8.6c-2-3.1-4.2-6.6-6.9-10.3c-0.7-1-1.5-2.1-2.2-3.2
	c-7-10.4-12.4-18.1-16.1-23.6c-2.4-3.5-4.2-6.1-5.4-7.9c-0.6-1-1.1-1.7-1.4-2.1c-0.2-0.2-0.3-0.4-0.4-0.6c0-0.1-0.1-0.1-0.1-0.1l0,0
	l0,0l0,0c1.1-0.9,1.7-1.3,1.8-1.3l0,0l0,0l0,0l0,0l0,0l0,0c0,0-0.6,0.5-1.7,1.3l0,0l0,0l0,0l0.1,0.1c0.1,0.1,0.3,0.3,0.5,0.5
	c0.4,0.4,1,1,1.9,1.8c1.5,1.5,3.8,3.8,6.8,7c4.6,4.9,11.1,11.9,19.3,21.5c0.9,1,1.7,2.1,2.5,3.1c1.5,2,2.7,4.1,3.7,6
	c1,2,1.8,3.9,2.4,5.7c1.3,3.6,2.1,6.8,3.1,9.6c0.3,0.8,0.6,1.5,0.9,2.2c1.2,2.7,2.7,5,4.1,7.1c1.3,2,2.5,3.7,2.9,4.8
	c0.9,2.4,1.8,5.6,2.5,9.2C424.9,478.8,425.6,495.6,425.6,495.6L425.6,495.6z"/>
<path id="path64" inkscape:connector-curvature="0" d="M402.7,381.5c0,0,6.3,11.2,10.8,21.5c1.9,4.1,3.5,8.1,4.2,11.1
	c0.4,1.5,1,4.2,2.1,7.4l0,0c0.5,1.5,1.1,3,1.8,4.5c1.3,2.7,3.2,5.7,5.8,8.8c2.9,3.6,6.3,7.9,9.6,13.5c14.4,23.7,19.8,33.5,19.8,33.5
	l0,0c-1.3,0.8-1.9,1.1-1.9,1.1s0.6-0.4,1.9-1.1l0,0c0,0-7.9-8.4-25.1-30.4c-4-5.1-6.5-10-8.4-14.2c-1.9-3.9-2.9-7.4-4.4-10.1
	c-0.8-1.5-1.7-2.8-2.7-4.1l0,0c-2.1-2.8-4.2-5-4.9-6.3c-1.4-2.8-2.8-6.9-3.9-11.4C404.7,394.4,402.7,381.5,402.7,381.5L402.7,381.5z
	"/>
</svg>
