<?xml version="1.0" encoding="UTF-8" standalone="no"?>
<!-- Generator: Adobe Illustrator 21.1.0, SVG Export Plug-In . SVG Version: 6.00 Build 0)  -->

<svg
   xmlns:dc="http://purl.org/dc/elements/1.1/"
   xmlns:cc="http://creativecommons.org/ns#"
   xmlns:rdf="http://www.w3.org/1999/02/22-rdf-syntax-ns#"
   xmlns:svg="http://www.w3.org/2000/svg"
   xmlns="http://www.w3.org/2000/svg"
   xmlns:sodipodi="http://sodipodi.sourceforge.net/DTD/sodipodi-0.dtd"
   xmlns:inkscape="http://www.inkscape.org/namespaces/inkscape"
   version="1.1"
   id="svg2"
   inkscape:export-filename="../png/flytype-128.png"
   inkscape:export-xdpi="24"
   inkscape:export-ydpi="24"
   inkscape:version="0.92.1 r15371"
   sodipodi:docname="fly-type.svg"
   x="0px"
   y="0px"
   viewBox="0 0 480.08503 480.08503"
   xml:space="preserve"
   width="512.0907"
   height="512.0907"><metadata
     id="metadata55"><rdf:RDF><cc:Work
         rdf:about=""><dc:format>image/svg+xml</dc:format><dc:type
           rdf:resource="http://purl.org/dc/dcmitype/StillImage" /><dc:title /></cc:Work></rdf:RDF></metadata><defs
     id="defs53" /><sodipodi:namedview
     pagecolor="#ffffff"
     bordercolor="#666666"
     borderopacity="1"
     objecttolerance="10"
     gridtolerance="10"
     guidetolerance="10"
     inkscape:pageopacity="0"
     inkscape:pageshadow="2"
     inkscape:window-width="1366"
     inkscape:window-height="671"
     id="namedview51"
     showgrid="false"
     inkscape:zoom="0.5990766"
     inkscape:cx="136.14805"
     inkscape:cy="159.67158"
     inkscape:window-x="0"
     inkscape:window-y="27"
     inkscape:window-maximized="1"
     inkscape:current-layer="svg2"><inkscape:grid
       type="xygrid"
       id="grid64"
       originx="-91.977552"
       originy="-0.19342288" /></sodipodi:namedview><style
     type="text/css"
     id="style2">
	.st0{fill:none;stroke:#000000;stroke-width:7.7492;}
	.st1{fill:none;stroke:#000000;stroke-width:6.8964;}
	.st2{fill:#FFF1F1;}
	.st3{fill:#FFD6D6;}
	.st4{stroke:#000000;stroke-width:0.8649;}
	.st5{fill:#295F9A;}
	.st6{fill:#5A7997;}
	.st7{fill:#C7D6E5;}
	.st8{stroke:#000000;stroke-width:0.7;}
	.st9{display:none;}
	.st10{display:inline;fill:#5A9761;stroke:#000000;stroke-width:3;}
	.st11{fill:#D9DEE6;}
	.st12{fill:#FFFFFF;}
	.st13{stroke:#000000;}
</style><g
     id="Macchie"
     class="st9"
     style="display:none"
     transform="translate(-91.977552,-59.721555)"><path
       id="path70"
       inkscape:connector-curvature="0"
       class="st10"
       d="m 230.1,375.5 c -7.1,0 -10.3,9.3 -8.7,15.3 1.9,7.1 5.8,11.2 12.9,11.2 7.1,0 12.9,-5 12.9,-11.2 0,-6.2 -10,-15.3 -17.1,-15.3 z"
       style="display:inline;fill:#5a9761;stroke:#000000;stroke-width:3" /><path
       id="path72"
       inkscape:connector-curvature="0"
       class="st10"
       d="m 267.2,384.6 c -3.3,0 -6.8,2.3 -6.1,5.1 0.9,3.3 2.7,5.2 6,5.2 3.3,0 6,-2.3 6,-5.2 -0.1,-2.9 -2.6,-5.1 -5.9,-5.1 z"
       style="display:inline;fill:#5a9761;stroke:#000000;stroke-width:3" /><path
       id="path74"
       inkscape:connector-curvature="0"
       class="st10"
       d="m 256.7,401.8 c -3.3,0 -6.5,4.8 -5.7,7.6 0.9,3.3 2.7,5.2 6,5.2 3.3,0 6,-2.3 6,-5.2 0,-2.9 -3,-7.6 -6.3,-7.6 z"
       style="display:inline;fill:#5a9761;stroke:#000000;stroke-width:3" /></g><g
     id="g101"
     transform="translate(27.565843)"><g
       transform="translate(-91.977552,-59.721555)"
       id="Zampe"><path
         style="fill:none;stroke:#000000;stroke-width:7.74919987"
         inkscape:connector-curvature="0"
         id="path4"
         d="m 298,440.1 c 0,0 -36.6,40.7 -35,51.7 0.9,6.4 13.1,16.9 23.1,24.5 7.2,5.5 -3.1,21.4 -3.1,21.4"
         class="st0" /><path
         style="fill:none;stroke:#000000;stroke-width:7.74919987"
         inkscape:connector-curvature="0"
         id="path6"
         d="m 251,420.2 c 0,0 -31.4,10.2 -35.9,23.9 -2.5,7.6 3.1,28.3 -0.4,42 -2.8,10.9 -14.9,16 -14.9,16"
         class="st0" /><path
         style="fill:none;stroke:#000000;stroke-width:7.74919987"
         inkscape:connector-curvature="0"
         id="path8"
         d="m 224.3,385.5 c -14.5,4.4 -41.3,7.6 -48.2,20.4 -4,7.4 -8,26.6 -17.3,37.3 -6.9,7.9 -20.3,9 -20.3,9"
         class="st0" /><path
         style="fill:none;stroke:#000000;stroke-width:6.89639997"
         inkscape:connector-curvature="0"
         id="path10"
         d="m 431.5,371.3 c 0,0 37.4,3.4 44.3,9.8 3.8,3.5 4.5,14.4 4.4,23.5 -0.1,7.5 11.3,11.4 11.3,11.4"
         class="st1" /><path
         style="fill:none;stroke:#000000;stroke-width:7.74919987"
         inkscape:connector-curvature="0"
         id="path12"
         d="m 442.4,341.2 c 0,0 25.5,-3 35.5,1.8 6.4,3.1 15.8,16.9 21.6,26.1 3.1,5 17.1,3.8 17.1,3.8"
         class="st0" /></g><g
       transform="matrix(0.7808271,0.0438455,-0.0442801,0.78856668,-9.8584637,-13.638047)"
       id="Ali"><g
         id="Sinistra"><path
           style="fill:#fff1f1"
           d="m 226.57595,255.21628 -180.099995,-69.3 c 0,0 -18,-9.1 -19.9,-15.5 -1.9,-6.4 5.9,-53.3 12.1,-66.6 6.2,-13.199975 41.6,-46.399975 50.5,-48.199975 8.9,-1.7 114.299995,81.399975 131.199995,102.899975 16.9,21.5 30.1,56.2 32.8,68.9"
           class="st2"
           inkscape:connector-curvature="0"
           id="Riempimento_1_" /><path
           style="fill:#ffd5d5"
           d="m 61.912456,74.851737 c -9.5,9.3 -18.1,19.2 -20.9,25.200013 -6.1,13.20003 -14,60.10003 -12.1,66.50003 1.9,6.4 19.9,15.5 19.9,15.5 l 174.700074,75.9 4.7,-4.9 -174.500074,-75.9 c 0,0 -18,-9.1 -19.9,-15.5 -1.9,-6.4 5.9,-53.3 12.1,-66.600043 2.2,-4.9 8.5,-12.5 16,-20.2 z"
           class="st3"
           inkscape:connector-curvature="0"
           id="Bordo_Int_1_" /><path
           style="stroke:#000000;stroke-width:0.86489999"
           d="m 225.31015,257.21128 c 0,0 -31.4,-10.7 -69.3,-24.4 -37.9,-13.7 -82.399956,-30.3 -108.099956,-41.8 -1.1,-0.5 -2.3,-1 -3.7,-1.7 -2.7,-1.7 -5.8,-3.8 -9.4,-6.1 -2.3,-1.6 -4.7,-3.5 -7.1,-5.8 -0.9,-0.9 -1.9,-2 -2.9,-3.2 -0.7,-0.9 -1.4,-2.2 -1.9,-3.8 -0.3,-1 -0.3,-1.9 -0.3,-2.5 0,-1 0,-1.9 0.1,-2.8 0.2,-2.5 0.4,-4.9 0.8,-7.3 0.9,-6.3 2,-12.9 3.3,-19.6 0.3,-1.7 0.7,-3.5 1,-5.2 1,-5 2,-10.2 3.3,-15.7 0.7,-2.9 1.4,-5.9 2.2,-8.9 0.6,-2.2 1.3,-4.5 2.3,-6.9 1,-2.39994 2.4,-4.49994 3.7,-6.49994 1.7,-2.6 3.6,-5.1 5.6,-7.5 4.4,-5.4 9.3,-10.9 14.7,-16.4 4.7,-4.7 9.7,-9.5 15.5,-14.2 2,-1.6 4.2,-3.3 6.7,-4.8 1.3,-1 3.3,-2.1 6.2,-2.8 1.7,-0.2 2.9,-0.1 3.4,0.1 1,0.2 1.8,0.5 2.5,0.8 2,0.8 3.8,1.7 5.399966,2.7 5.09999,2.8 9.99999,6.1 14.89999,9.4 4.1,2.8 8.2,5.7 12.3,8.8 10.2,7.6 19.6,15 28.5,22.1 15.9,12.69994 29.9,24.39994 42.1,35.29994 5.8,5.2 11.3,10.2 16.3,15 2.1,2 4.1,4.1 6,6.2 1.5,1.6 3,3.3 4.4,5.1 5.6,7.3 9.9,14.5 13.4,21.1 3.5,6.6 6.2,12.6 8.4,17.9 3.2,7.4 5.4,13.6 7,18.4 0.7,2.2 1.4,4.2 1.9,5.9 0.5,1.7 0.9,3.1 1.1,4.3 0.6,2.3 0.7,3.4 0.7,3.4 0,0 -0.3,-1.1 -1,-3.4 -0.4,-1.1 -0.8,-2.5 -1.4,-4.2 -0.6,-1.7 -1.4,-3.6 -2.3,-5.8 -1.9,-4.7 -4.5,-10.7 -8.1,-17.9 -2.6,-5.1 -5.6,-10.9 -9.4,-17.2 -3.8,-6.3 -8.3,-13 -14.1,-19.8 -1.3,-1.6 -2.8,-3 -4.3,-4.5 -2,-1.9 -4,-3.8 -6.2,-5.7 -5.1,-4.6 -10.8,-9.2 -16.8,-14.1 -12.5,-10.2 -27,-21.2 -43.2,-33.19992 -9.1,-6.70002 -18.8,-13.70002 -29.1,-20.70002 -4.2,-2.9 -8.3,-5.6 -12.3,-8.3 -4.9,-3.2 -9.499981,-6.3 -14.099956,-8.9 -1.5,-0.9 -2.9,-1.6 -4.1,-2.1 -0.4,-0.2 -0.7,-0.3 -0.8,-0.3 -0.2,0.1 0.1,0 1,-0.1 -0.5,0 -1.4,0.6 -2.8,1.3 -2,1.1 -3.9,2.5 -5.9,3.9 -5.6,4 -10.7,8.3 -15.5,12.6 -5.6,4.9 -10.7,9.8 -15.3,14.6 -2.1,2.2 -4,4.4 -5.8,6.6 -1.4,1.80003 -2.6,3.39994 -3.5,5.19994 -1,1.9 -1.7,3.9 -2.5,6 -1,2.8 -1.8,5.7 -2.6,8.5 -1.5,5.4 -2.6,10.7 -3.5,15.7 -0.3,1.6 -0.5,3.3 -0.8,4.9 -1,6.7 -1.6,13.3 -1.8,19.4 -0.1,2.4 -0.1,4.7 0,6.8 0,0.8 0.1,1.5 0.2,2.2 0.1,0.5 0.1,0.8 0.2,0.7 0.1,0.2 0.4,0.5 0.9,1 0.6,0.6 1.4,1.2 2.2,1.8 2.1,1.5 4.3,2.8 6.5,3.9 3.5,1.6 6.6,3.1 9.1,4.4 1.4,0.5 2.7,0.9 3.8,1.3 13,4.8 30.2,11.9 48.699956,20 18.6,8.1 38.5,17 56.8,25.4 36.5,16.9 66.8,31.4 66.8,31.4 z"
           class="st4"
           inkscape:connector-curvature="0"
           id="Contorno" /></g><g
         id="Destra"><path
           style="fill:#fff0f0"
           d="m 338.60143,200.94709 c 0,0 10.6,-52.9 9.1,-64.3 -1.5,-11.4 -28.7,-130.2000014 -35.9,-133.4000014 -7.2,-3.10000012 -52.5,12.8999994 -60.6,19.6999994 -8.1,6.8 -48,62.2 -48.5,68.4 -0.5,6.2 93.4,102.100002 97.4,113.700002"
           class="st2"
           inkscape:connector-curvature="0"
           id="Riempimento" /><path
           style="fill:#ffd5d5"
           d="m 316.7163,3.6267687 c -11,-0.8 -51.2,13.6999993 -58.8,20.0999993 -8.1,6.8 -48,62.2 -48.5,68.4 -0.5,6.2 93.4,102.100022 97.4,113.700022 l 3.3,-0.4 c -0.3,-0.7 -0.7,-1.4 -1.4,-2.4 -0.9,-1.3 -2.1,-3 -3.6,-4.9 -2.9,-3.7 -6.9,-8.4 -11.6,-13.8 -9.4,-10.7 -21.5,-24 -33.4,-37.1 -11.9,-13.1 -23.8,-26 -32.6,-36.1 -4.4,-5 -8,-9.3 -10.6,-12.600022 -1.3,-1.6 -2.2,-3 -2.9,-4 -0.7,-1 -1,-1.8 -1,-2.2 0.1,-0.8 0.8,-2.3 1.9,-4.4 1.2,-2.1 2.8,-4.8 4.8,-7.9 3.9,-6.2 9.2,-13.9 14.8,-21.6 5.5,-7.7 11.3,-15.5 16.2,-21.7 2.4,-3.1 4.7,-5.9 6.5,-8.1 1.9,-2.2 3.4,-3.8 4.4,-4.6 1,-0.9 2.6,-1.9 4.6,-2.9 2,-1.1 4.5,-2.3 7.2,-3.5 5.5,-2.4 12.1,-5 18.8,-7.2 3.3,-1.0999993 6.6,-2.1999993 9.7,-3.0999993 3.1,-0.9 6.1,-1.7 8.8,-2.3 2.7,-0.6 5.1,-1 7,-1.1 0.2,0 0.4,0 0.6,0 -0.3,-0.2 -0.9,-0.3 -1.6,-0.3 z"
           class="st3"
           inkscape:connector-curvature="0"
           id="Bordo_Int" /><path
           style="stroke:#000000;stroke-width:0.86489999"
           d="m 335.46635,200.49044 v 0 c 0,0 0,-0.1 0,0 v 0 c 0,-0.1 0,-0.1 0,-0.2 0,-0.1 0,-0.3 0.1,-0.4 0.1,-0.4 0.1,-1 0.3,-1.7 0.2,-1.4 0.5,-3.5 0.9,-6.2 0.7,-4.9 1.7,-11.5 2.7,-19.5 0.8,-6.5 1.8,-13.7 2.5,-21.4 0.2,-2.8 0.5,-5.7 0.5,-8.5 0,-2 0.1,-3.7 -0.2,-5 v 0 c -0.1,-0.9 -0.4,-1.9 -0.6,-3 -0.4,-1.8 -0.8,-3.6 -1.2,-5.4 -1.2,-5.3 -2.5,-10.7 -3.8,-16.2 -3.7,-15.500008 -7.5,-31.000008 -10.5,-44.400008 -1.8,-7.7 -3.3,-14.6 -4.4,-20.6 -1,-4.9 -2.5,-13 -4.9,-22.8 -1.1,-4.6 -2.4,-9.5 -4.1,-14.3 -0.5,-1.4000008 -1,-2.8000008 -1.7,-4.0000008 -0.2,-0.4 -0.4,-0.7 -0.5,-0.9 -0.2,-0.1 -0.1,-0.1 0.3,0.2 -0.1,-0.1 -0.4,-0.1 -0.8,-0.2 -0.6,-0.1 -1.4,-0.1 -2.1,0 -1.5,0.1 -3,0.3 -4.5,0.6 -0.7,0.1 -1.4,0.3 -2.2,0.4 -5.7,1.2 -11.8,3.2000008 -18.2,5.6000008 -5.8,2.2 -11.9,4.8 -18.2,7.9 -2.3,1.1 -4.6,2.3 -6.8,3.6 -1.5,0.9 -2.9,1.7 -3.8,2.6 -0.4,0.4 -0.9,0.9 -1.4,1.5 v 0 c -0.7,0.9 -1.5,1.8 -2.3,2.7 -2,2.6 -4,5.3 -6.1,8.1 -5,6.8 -10.1,14.1 -15.6,21.9 -3.7,5.2 -7.4,10.6 -11.3,16.3 -1.1,1.7 -2.3,3.4 -3.4,5.1 -1.7,2.6 -3.3,5.1 -4.6,7.5 -0.5,0.8 -0.9,1.6 -1.2,2.3 -0.2,0.6 -0.3,0.6 -0.1,0 -0.1,-1.6 -0.2,-2.2 -0.2,-1.9 0,0.1 0.1,0.3 0.4,0.6 0.7,1.1 1.6,2.3 2.6,3.6 3.3,4.3 6.8,8.400008 10.2,12.400008 5.9,6.9 11.6,13.4 17,19.4 5.4,6 10.4,11.7 15.1,16.9 7.1,7.9 13.3,15 18.8,21.2 5.5,6.3 10.2,11.7 14.1,16.4 2.5,2.9 4.7,5.6 6.6,7.9 1.9,2.4 3.5,4.4 4.9,6.2 1.5,2 2.8,3.8 3.6,5.1 0.5,0.8 0.9,1.5 1.2,2.1 0.3,0.5 0.5,1 0.6,1.4 0.1,0.4 0.2,0.6 0.2,0.6 0,0 -0.1,-0.2 -0.2,-0.5 -0.2,-0.3 -0.4,-0.8 -0.7,-1.3 -0.4,-0.5 -0.8,-1.2 -1.4,-1.9 -1,-1.3 -2.3,-2.9 -4,-4.8 -1.5,-1.7 -3.3,-3.6 -5.4,-5.8 -2.1,-2.2 -4.5,-4.7 -7.2,-7.4 -4.3,-4.4 -9.3,-9.5 -15.2,-15.4 -5.9,-5.9 -12.6,-12.5 -20.1,-20 -5,-5 -10.3,-10.3 -16.1,-16.1 -5.7,-5.8 -11.8,-11.9 -18.1,-18.6 -3.7,-3.8 -7.5,-7.9 -11.2,-12.300015 -1.1,-1.299993 -2.2,-2.599993 -3.3,-4.199993 -0.3,-0.5 -0.7,-1.1 -1.1,-1.8 v 0 c -0.3,-0.2 -0.5,-1.1 -0.6,-2.8 0.2,-1.5 0.5,-2.5 0.8,-3 0.4,-1.1 0.9,-2.2 1.4,-3.1 1.4,-2.9 3,-5.6 4.6,-8.3 1,-1.8 2.1,-3.6 3.2,-5.4 3.7,-6 7.4,-11.6 11.1,-16.8 5.5,-7.9 11.1,-15.1 16.5,-21.7 2.3,-2.8 4.6,-5.4 6.9,-8 0.9,-1 1.8,-1.9 2.8,-2.9 v 0 c 0.7,-0.6 1.4,-1.4 2.3,-2.1 1.9,-1.5 3.8,-2.4 5.5,-3.2 2.6,-1.2 5.2,-2.3 7.7,-3.2 6.8,-2.6 13.3,-4.6000008 19.4,-6.4000008 6.7,-2 13,-3.6 19,-5 0.8,-0.2 1.7,-0.4 2.5,-0.5 1.6,-0.3 3.2,-0.60000003 4.8,-0.80000002 0.9,-0.1 1.9,-0.2 2.9,-0.1 0.7,0 1.6,0.1 2.6,0.50000002 0.9,0.5 1.5,0.9 1.7,1.3 0.5,0.6 0.9,1.1 1.2,1.6 1,1.5 1.7,3.1 2.4,4.5 2.4,5.0000008 4.4,9.9000008 6.2,14.3000008 3.9,9.5 7.1,17.3 8.4,22.1 1.7,5.9 3.4,12.9 5.1,20.7 3,13.5 5.8,29.3 8.4,45.200008 0.9,5.5 1.7,11.1 2.5,16.6 0.3,1.9 0.5,3.8 0.7,5.7 0.1,1.1 0.3,2.3 0.3,3.5 v 0 c 0.1,2.3 -0.1,4.4 -0.4,6.4 -0.4,3 -0.9,6 -1.5,8.8 -1.5,7.8 -3.3,15 -4.9,21.3 -2,7.8 -3.8,14.4 -5.2,19.1 -0.7,2.6 -1.3,4.6 -1.7,6 -0.2,0.7 -0.4,1.3 -0.5,1.7 -0.1,0.2 -0.1,0.3 -0.1,0.4 0.1,0.1 0.1,0.1 0.1,0.2 0,-0.1 0,0 0,0 z"
           class="st4"
           inkscape:connector-curvature="0"
           id="Bordo_Est" /></g></g><g
       transform="translate(-91.977552,-59.721555)"
       id="Corpo"><path
         style="fill:#295f9a"
         d="m 235.6,202.8 c -37.2,19.2 -78.8,65.6 -83.9,125.5 -6.3,73.4 100.9,140.6 168.8,135.6 31.4,-2.3 61.3,-14.3 85.8,-33.1 -1.7,0.9 -3.6,-26.9 -5,-26.2 -3.8,2 -7.6,3.7 -11.5,5.3 -3.9,1.6 -7.9,3 -12,4.2 -4.1,1.2 -8.2,2.2 -12.4,2.9 -4.2,0.8 -8.4,1.3 -12.7,1.6 -3.5,0.3 -7.1,0.3 -10.9,0.1 -3.7,-0.2 -7.6,-0.6 -11.5,-1.3 -3.9,-0.7 -7.8,-1.5 -11.8,-2.6 -4,-1.1 -8,-2.3 -12.1,-3.8 -4,-1.5 -8.1,-3.1 -12.1,-5 -4,-1.8 -8,-3.9 -11.9,-6 -3.9,-2.2 -7.8,-4.5 -11.5,-7 -3.8,-2.5 -7.5,-5.1 -11,-7.9 -3.6,-2.8 -7,-5.7 -10.3,-8.7 -3.3,-3 -6.5,-6.2 -9.4,-9.4 -3,-3.2 -5.7,-6.6 -8.3,-10 -2.6,-3.4 -4.9,-7 -7,-10.6 -2.1,-3.6 -4,-7.3 -5.6,-11 -0.8,-1.9 -1.5,-3.8 -2.2,-5.7 -0.7,-1.9 -1.2,-3.8 -1.8,-5.7 -0.5,-1.9 -0.9,-3.9 -1.3,-5.8 -0.4,-2 -0.6,-3.9 -0.8,-5.9 -0.2,-2 -0.3,-3.9 -0.3,-5.9 0,-2 0,-4 0.2,-6 0.3,-4 0.8,-7.9 1.5,-11.8 0.7,-3.8 1.5,-7.6 2.5,-11.3 1,-3.7 2.1,-7.3 3.4,-10.8 1.3,-3.5 2.7,-6.9 4.2,-10.3 1.5,-3.3 3.2,-6.6 4.9,-9.8 1.7,-3.2 3.6,-6.2 5.5,-9.1 1.9,-3 3.9,-5.8 6,-8.6 2.1,-2.7 4.2,-5.4 6.4,-7.9 2.2,-2.5 4.5,-4.9 6.8,-7.2 2.3,-2.3 4.6,-4.5 7,-6.6 1.2,-1.1 -27.2,-3.1 -25.7,-4.2 z"
         class="st5"
         inkscape:connector-curvature="0"
         id="path20" /><path
         style="fill:#5a7997"
         d="m 236.3,201.1 c -1.5,1.2 -3,2.2 -4.5,3.5 -2.9,2.4 -5.3,7.4 -8.1,10 -2.8,2.6 -5.5,5.4 -8.2,8.3 -2.7,2.9 -5.3,5.9 -7.8,9.1 -2.5,3.1 -5,6.4 -7.3,9.8 -2.3,3.4 -4.5,6.9 -6.6,10.5 -2.1,3.6 -4.1,7.4 -5.9,11.2 -1.8,3.8 -3.5,7.7 -5.1,11.8 -1.5,4 -2.9,8.2 -4.1,12.4 -1.2,4.2 -2.2,8.6 -3,13 -0.8,4.4 -1.4,8.9 -1.8,13.5 -0.2,2.3 -0.3,4.6 -0.3,6.9 0,2.3 0.2,4.5 0.4,6.8 0.2,2.3 0.5,4.5 1,6.8 0.4,2.2 1,4.5 1.6,6.7 0.6,2.2 1.3,4.4 2.1,6.6 0.8,2.2 1.7,4.4 2.6,6.5 1.9,4.3 4.2,8.5 6.8,12.7 2.6,4.1 5.4,8.2 8.5,12.1 3.1,3.9 6.5,7.8 10,11.5 3.5,3.7 7.4,7.3 11.4,10.8 4,3.5 8.1,6.8 12.5,10 4.3,3.2 8.8,6.2 13.4,9 4.6,2.8 9.2,5.5 14,8 4.7,2.5 9.6,4.8 14.4,6.9 4.8,2.1 9.7,4 14.6,5.7 4.9,1.7 9.8,3.1 14.6,4.4 4.8,1.2 9.6,2.2 14.3,3 4.7,0.7 9.3,1.3 13.9,1.5 4.5,0.2 8.9,0.2 13.2,-0.1 5.1,-0.4 10.3,-1 15.3,-1.9 5,-0.9 10,-2 15,-3.4 4.9,-1.4 9.8,-3 14.5,-4.8 4.7,-1.8 9.4,-3.9 14,-6.1 1.7,-0.8 3.3,-1.9 5,-2.8 39.6,-30.5 64.7,-79.3 57.8,-135.1 -9.3,-75.4 -111.2,-134 -204,-103.4 -7.8,1.2 -15.9,4.3 -24.2,8.6 z"
         class="st6"
         inkscape:connector-curvature="0"
         id="path22" /><path
         style="fill:#c7d6e5"
         d="m 311.9,184 c -17.4,-0.1 -35.1,2.5 -52.5,8.3 -7.4,1.5 -15.4,4.5 -23.8,8.8 -1.5,1.2 -3,2.2 -4.5,3.5 -11.5,6.8 -25.7,15.5 10.6,0.1 4,-1.5 7.8,-2.6 11.5,-3.3 2.9,-1 5.8,-1.8 8.7,-2.6 2.9,-0.8 5.8,-1.5 8.8,-2.1 5.8,-1.2 11.7,-2.1 17.6,-2.7 5.8,-0.6 11.7,-0.9 17.5,-0.8 5.8,0 11.5,0.3 17.2,0.9 5.7,0.6 11.3,1.5 16.8,2.6 5.5,1.1 11,2.5 16.3,4.2 5.3,1.6 10.5,3.5 15.6,5.6 5.1,2.1 10,4.4 14.8,7 4.8,2.5 9.4,5.3 13.8,8.2 4.4,2.9 8.7,6 12.7,9.3 4,3.3 7.8,6.7 11.4,10.4 3.6,3.6 6.9,7.4 10,11.3 3.1,3.9 5.9,8 8.4,12.1 2.5,4.2 4.8,8.4 6.7,12.8 1.9,4.4 3.5,8.9 4.8,13.4 0.6,2.3 1.2,4.6 1.7,6.9 0.5,2.3 0.9,4.7 1.2,7 0.4,3.5 0.7,7 0.9,10.4 0.2,3.4 0.2,6.8 0.2,10.2 -0.1,3.4 -0.2,6.7 -0.5,10 -0.3,3.3 -0.7,6.6 -1.2,9.8 -0.5,3.2 -1.1,6.4 -1.8,9.5 -0.7,3.1 -1.5,6.2 -2.4,9.3 -0.9,3.1 -1.9,6.1 -3,9.1 -1.1,3 -2.3,5.9 -3.6,8.8 -1.3,2.9 -2.7,5.7 -4.1,8.5 -1.4,2.8 -3,5.5 -4.7,8.1 -0.4,0.6 -0.8,1.2 -1.2,1.9 21.3,-28.6 32.6,-64.7 27.7,-104.5 -7.6,-61.6 -76.3,-111.8 -151.6,-112 z"
         class="st7"
         inkscape:connector-curvature="0"
         id="path24" /><path
         style="stroke:#000000;stroke-width:0.69999999"
         d="m 262,191.1 c 0,0 1.8,-0.7 5.1,-1.7 3.3,-1.1 8.2,-2.5 14.4,-4 6.2,-1.5 13.9,-2.8 22.7,-3.6 8.8,-0.8 18.7,-1.1 29.4,-0.3 10.3,0.8 21.4,2.5 32.6,5.5 11.2,3 22.6,7.1 33.6,12.6 9.6,4.8 18.9,10.5 27.4,17.2 8.5,6.7 16.4,14.3 23,22.6 6.8,8.4 12.3,17.6 16.4,27 4,9.4 6.5,19.1 7.6,28.4 1.5,13.4 0.9,25.8 -0.7,36.2 -1.1,7 -3.3,17.5 -7.8,29.6 -3.1,8.2 -7.3,17.1 -12.8,26.1 -5.5,9 -12.2,18.1 -20,26.6 v 0 c -2.2,2.4 -4.6,4.8 -7,7.2 -5.6,5.4 -11.8,10.8 -18.7,15.9 -6.9,5.1 -14.6,10.1 -23.1,14.5 -8.4,4.4 -17.5,8.3 -27.6,11.5 -10,3.2 -20.9,5.5 -32.5,6.7 -9.2,0.9 -18.8,0.5 -28.4,-0.9 -9.9,-1.4 -20,-3.9 -30.1,-7.2 -16.1,-5.4 -32.5,-13.2 -48.4,-23.6 -3.4,-2.2 -6.6,-4.5 -9.8,-6.9 -9.1,-6.8 -17.5,-14.1 -24.8,-21.8 -7.4,-7.8 -13.7,-16 -18.9,-24.5 -5.4,-8.8 -9.4,-18 -12,-27.3 -2.7,-9.8 -3.5,-19.7 -2.6,-29.1 0.9,-10 2.9,-19.4 5.4,-28.1 2.6,-8.8 5.8,-16.9 9.5,-24.3 4.2,-8.6 8.9,-16.3 13.8,-23.2 4.9,-6.9 10,-13 15.1,-18.4 6.3,-6.7 12.5,-12.3 18.5,-17.1 6,-4.7 11.6,-8.6 16.8,-11.7 5.4,-3.3 10.3,-5.8 14.6,-7.7 4.3,-1.9 8,-3.2 11,-4.1 3,-0.9 5.2,-1.5 6.7,-1.8 1.5,-0.3 2.2,-0.5 2.2,-0.5 0,0 -0.7,0.2 -2.2,0.6 -1.5,0.4 -3.7,1.1 -6.6,2.1 -2.9,1.1 -6.5,2.5 -10.7,4.6 -4.2,2.1 -8.9,4.9 -14.1,8.3 -5,3.3 -10.4,7.4 -16,12.3 -5.6,4.9 -11.5,10.7 -17.4,17.5 -4.7,5.5 -9.4,11.6 -13.9,18.5 -4.5,6.9 -8.7,14.5 -12.5,22.9 -3.2,7.3 -6,15.2 -8.2,23.7 -2.2,8.5 -3.7,17.5 -4.2,27 -0.5,8.5 0.6,17.4 3.3,26.2 2.6,8.4 6.6,16.7 11.8,24.7 5.1,7.8 11.3,15.2 18.4,22.3 7.1,7 15.2,13.7 24,19.8 3.1,2.1 6.2,4.2 9.5,6.2 15.2,9.5 30.6,16.7 45.7,21.9 9.4,3.3 18.7,5.8 27.8,7.4 8.8,1.5 17.5,2.2 25.7,1.8 10.8,-0.5 21.1,-2.2 30.8,-4.6 9.6,-2.4 18.6,-5.6 26.8,-9.4 8.4,-3.9 16.1,-8.3 23,-13.1 6.9,-4.8 13,-10 18.3,-15.3 2.2,-2.2 4.3,-4.5 6.2,-6.8 v 0 c 7.3,-8.5 13.2,-17.7 17.6,-26.6 4.4,-8.9 7.5,-17.7 9.5,-25.5 1.5,-5.8 2.5,-11.2 3.1,-15.9 0.7,-4.7 1,-8.7 1.4,-12 1,-9.5 1.3,-20.8 0,-33.1 -0.8,-8 -2.8,-16.4 -6.2,-24.8 -3.4,-8.4 -8,-16.8 -13.8,-24.6 -5.7,-7.8 -12.5,-15 -20.1,-21.6 -7.6,-6.6 -16,-12.4 -24.7,-17.4 -10,-5.7 -20.5,-10.4 -31.1,-13.9 -10.5,-3.5 -21,-5.9 -30.9,-7.3 -10.2,-1.5 -19.9,-1.9 -28.6,-1.8 -8.7,0.1 -16.3,0.9 -22.6,1.9 -6.3,0.9 -11.3,2 -14.6,2.8 -3.3,0.9 -5.1,1.4 -5.1,1.4 z"
         class="st8"
         inkscape:connector-curvature="0"
         id="path26" /></g><g
       transform="translate(-91.977552,-59.721555)"
       id="Occhi"><path
         style="fill:#d9dee6"
         d="m 402.5,204.4 c 60,-4.6 81.5,20.6 86.1,57.6 5.5,44.4 -44.6,81.7 -85.1,84.7 -33.4,2.5 -71.6,-32.6 -68.5,-68.7 3.2,-36 47.4,-72 67.5,-73.6 z"
         class="st11"
         inkscape:connector-curvature="0"
         id="path28" /><path
         style="fill:#ffffff"
         d="m 409.3,205 c -3.5,0.1 -7,0.2 -10.8,0.5 -13.2,1 -36.8,17 -52.4,38.1 2.1,-2.4 4.2,-4.9 6.4,-7.1 3.5,-3.4 7.1,-6.6 10.8,-9.4 3.6,-2.8 7.2,-5.3 10.8,-7.4 3.5,-2.1 6.9,-3.8 10,-5 1.6,-0.6 3.1,-1.1 4.5,-1.4 1.4,-0.4 2.8,-0.6 4,-0.7 3.7,-0.3 7.4,-0.4 10.8,-0.5 3.5,-0.1 6.7,0 9.9,0.1 3.2,0.1 6.2,0.4 9.1,0.8 2.9,0.4 5.6,0.9 8.3,1.4 2.6,0.6 5.1,1.2 7.5,2 2.4,0.8 4.6,1.7 6.8,2.6 2.1,1 4.1,2 6,3.1 1.9,1.1 3.7,2.3 5.4,3.6 1.7,1.3 3.2,2.7 4.7,4.1 1.5,1.5 2.8,3 4.1,4.6 1.3,1.6 2.5,3.3 3.5,5 1.1,1.7 2.1,3.6 3,5.4 0.9,1.8 1.7,3.8 2.5,5.8 0.7,2 1.4,4.1 1.9,6.2 1.1,4.2 2,8.7 2.6,13.3 0.3,2.8 0.5,5.5 0.4,8.2 -0.1,2.7 -0.3,5.4 -0.8,8 -0.5,2.6 -1.1,5.2 -1.9,7.8 -0.8,2.5 -1.8,5 -3,7.5 -1.2,2.5 -2.4,4.9 -3.9,7.2 -1.3,2.1 -2.6,4 -4.1,6 13.3,-14.4 21.5,-32.4 19.1,-51.8 -4.2,-34.6 -23.4,-59 -75.2,-58 z"
         class="st12"
         inkscape:connector-curvature="0"
         id="path30" /><path
         style="stroke:#000000"
         d="m 400,205.2 c 0,0 1,-0.1 2.9,-0.4 1.9,-0.2 4.7,-0.5 8.2,-0.8 3.5,-0.3 7.8,-0.5 12.6,-0.4 4.8,0.1 10.3,0.4 16.1,1.2 4.6,0.7 9.5,1.8 14.5,3.4 5,1.6 9.9,4 14.6,7.1 3.8,2.5 7.4,5.6 10.5,9 3.1,3.4 5.8,7.2 7.9,11.3 4.7,8.9 7,18.5 8,27.2 0.6,5.8 0.3,11.3 -0.6,16.3 -0.9,5 -2.4,9.5 -4.2,13.3 -0.7,1.4 -1.5,3.2 -2.6,5 -2.1,3.7 -5.1,8.1 -9,12.7 -3.9,4.6 -8.6,9.3 -13.9,13.8 v 0 c -3,2.5 -6.2,5 -9.6,7.4 -5.8,4.1 -12.3,8.2 -19.8,12 -4.5,2.3 -9.3,4.4 -14.7,6.2 -5.4,1.8 -11.2,3.3 -17.6,4 -4.5,0.5 -9.2,0.4 -14,-0.3 -4.8,-0.7 -9.6,-2 -14.3,-3.9 -8.8,-3.5 -17.4,-9 -24.8,-16.4 -0.5,-0.5 -0.9,-0.9 -1.4,-1.4 -6.8,-7.1 -12.1,-15 -15.6,-23.2 -2.1,-4.9 -3.5,-9.8 -4.3,-14.7 -0.8,-4.9 -0.9,-9.8 -0.5,-14.4 0.6,-5.5 1.9,-10.7 3.7,-15.4 1.7,-4.7 3.9,-9 6.2,-12.8 v 0 c 2.9,-4.9 6.1,-9.2 9.4,-13 3.2,-3.8 6.5,-7.1 9.7,-10.1 4.1,-3.8 8.1,-6.9 11.8,-9.6 3.7,-2.6 7.3,-4.8 10.4,-6.5 3,-1.7 5.9,-3 8.4,-4 2.5,-1 4.7,-1.6 6.5,-2 1.8,-0.4 3.1,-0.6 4,-0.7 1,0.2 1.5,0.1 1.5,0.1 0,0 -0.4,0.1 -1.3,0.2 -0.9,0.2 -2.2,0.5 -3.9,1 -1.7,0.5 -3.8,1.3 -6.1,2.5 -2.4,1.2 -5,2.7 -7.8,4.6 -2.9,1.9 -6.2,4.3 -9.5,7.2 -3.4,2.9 -7,6.3 -10.6,10.2 -2.8,3.1 -5.7,6.5 -8.5,10.4 -2.8,3.9 -5.5,8.1 -7.8,12.9 -1.9,3.7 -3.5,7.8 -4.8,12.1 -1.3,4.3 -2.1,8.9 -2.2,13.6 -0.1,4 0.3,8.1 1.3,12.2 1,4.1 2.5,8.3 4.5,12.3 3.5,6.8 8.4,13.3 14.7,19.1 0.4,0.4 0.8,0.8 1.3,1.2 6.8,6 13.9,10.6 21.2,13.7 7.6,3.3 15.3,5.1 22.4,4.9 5.6,-0.1 10.9,-0.8 16,-1.9 5,-1.1 9.8,-2.5 14.2,-4.2 7.6,-2.9 14.1,-6.4 19.5,-10.5 3,-2.3 5.8,-4.8 8.3,-7.5 v 0 c 4.5,-4.8 8,-9.9 10.6,-14.5 2.5,-4.7 4.1,-9 5.2,-12.3 0.6,-1.7 1,-3.2 1.4,-4.4 1.1,-3.2 2.1,-6.8 2.8,-10.7 0.7,-4 1.1,-8.3 0.8,-12.8 -0.6,-7.7 -1.8,-15.8 -5,-23.4 -2.8,-6.7 -7.3,-13.1 -13.1,-18 -3.6,-3 -7.6,-5.5 -11.8,-7.6 -4.2,-2 -8.5,-3.6 -12.8,-4.9 -5.3,-1.6 -10.5,-2.6 -15.2,-3.3 -4.7,-0.7 -8.9,-1.2 -12.3,-1.4 -3.5,-0.3 -6.3,-0.4 -8.2,-0.5 -2.3,-0.1 -3.3,-0.2 -3.3,-0.2 z"
         class="st13"
         inkscape:connector-curvature="0"
         id="path32" /><path
         style="fill:#d9dee6"
         d="m 287.7,224.1 c 45.6,-15 95.5,12.6 100.1,49.6 5.5,44.4 -30.1,79.7 -70.5,82.7 -33.4,2.5 -86.1,-30.6 -83,-66.7 3.1,-36 33.7,-61.6 53.4,-65.6 z"
         class="st11"
         inkscape:connector-curvature="0"
         id="path52" /><path
         style="fill:#ffffff"
         d="m 309.1,220 c -8.5,0 -17.2,1.3 -25.8,4.2 -13.3,2.7 -31.4,15.4 -42.8,34.4 1.3,-1.7 2.6,-3.5 4,-5.1 2.6,-2.9 5.4,-5.4 8.2,-7.8 2.8,-2.3 5.7,-4.4 8.5,-6.2 2.8,-1.8 5.7,-3.2 8.4,-4.4 2.7,-1.2 5.3,-2 7.8,-2.5 2.9,-0.9 5.7,-1.7 8.6,-2.3 2.9,-0.6 5.8,-1.1 8.6,-1.4 2.9,-0.3 5.7,-0.5 8.6,-0.5 2.8,0 5.7,0.1 8.5,0.4 2.8,0.3 5.5,0.7 8.2,1.2 2.7,0.5 5.4,1.2 8,2 2.6,0.8 5.2,1.6 7.7,2.6 2.5,1 4.9,2.1 7.3,3.3 2.3,1.2 4.6,2.5 6.8,3.9 2.2,1.4 4.3,2.9 6.2,4.5 1.9,1.6 3.9,3.2 5.6,5 1.8,1.7 3.4,3.6 4.9,5.5 1.5,1.9 2.9,3.9 4.1,5.9 1.2,2 2.3,4.1 3.3,6.2 1,2.1 1.7,4.3 2.4,6.6 0.6,2.2 1.1,4.5 1.4,6.8 0.3,2.8 0.5,5.5 0.5,8.2 0,2.7 -0.1,5.3 -0.4,7.9 -0.3,2.6 -0.7,5.2 -1.2,7.7 -0.5,2.5 -1.2,5 -2,7.4 -0.8,2.4 -1.7,4.7 -2.8,7 -1,2.1 -2.1,4.2 -3.3,6.3 11.3,-14.3 17.4,-32.7 14.9,-53 -3.6,-30.2 -37.3,-54 -74.2,-53.8 z"
         class="st12"
         inkscape:connector-curvature="0"
         id="path54" /><path
         style="stroke:#000000"
         d="m 287,223.5 c 0,0 0.9,-0.4 2.5,-0.9 1.6,-0.5 4.1,-1.4 7.2,-2.2 3.1,-0.8 7,-1.6 11.4,-2.1 4.4,-0.5 9.5,-0.7 14.9,-0.4 5.3,0.3 10.9,1.1 16.6,2.5 5.7,1.4 11.6,3.5 17.2,6.2 4.9,2.4 9.7,5.3 14.2,8.7 4.4,3.4 8.5,7.3 12,11.6 3.6,4.4 6.4,9.2 8.5,14.1 2.1,4.9 3.4,10 3.9,14.9 0.7,6.9 0.2,13.2 -0.8,18.6 -0.7,3.6 -2.1,8.9 -4.6,15 -1.7,4.1 -4,8.6 -6.9,13 -2.9,4.5 -6.4,9 -10.4,13.2 v 0 c -1.1,1.2 -2.3,2.4 -3.5,3.6 -2.8,2.7 -5.9,5.4 -9.3,8 -3.4,2.6 -7.2,5.1 -11.3,7.5 -4.2,2.3 -8.8,4.5 -13.8,6.2 -5.1,1.8 -10.6,3.1 -16.5,3.8 -4.8,0.5 -9.8,0.5 -14.9,-0.2 -5.1,-0.6 -10.2,-1.8 -15.3,-3.5 v 0 c -8.2,-2.7 -16.6,-6.6 -24.6,-11.9 -1.7,-1.1 -3.3,-2.3 -4.9,-3.5 -4.6,-3.4 -8.8,-7.2 -12.6,-11.2 -3.7,-4 -7,-8.2 -9.6,-12.6 -2.7,-4.5 -4.8,-9.3 -6.1,-14.2 -1.4,-5.1 -1.8,-10.3 -1.3,-15.3 0.6,-5.5 1.7,-10.6 3.2,-15.3 1.5,-4.7 3.4,-9 5.5,-13 4.2,-7.9 9.1,-14.2 13.9,-19.3 3.2,-3.4 6.4,-6.2 9.4,-8.5 3,-2.4 5.9,-4.3 8.6,-5.8 2.7,-1.6 5.3,-2.9 7.5,-3.9 2.2,-1 4.1,-1.6 5.7,-2.1 1.5,-0.5 2.7,-0.7 3.5,-0.9 0.8,-0.2 1.2,-0.2 1.2,-0.2 0,0 -0.4,0.1 -1.1,0.3 -0.8,0.2 -1.9,0.6 -3.4,1.2 -1.5,0.6 -3.3,1.4 -5.4,2.6 -2.1,1.1 -4.4,2.6 -6.9,4.4 -4.8,3.5 -10.5,8.4 -16.1,15.4 -4.2,5.2 -8.3,11.6 -11.6,19.2 -1.6,3.8 -3.1,8 -4.1,12.4 -1.1,4.4 -1.7,9.1 -1.9,14.1 -0.1,4.1 0.6,8.3 2,12.4 1.4,4 3.4,7.8 6,11.6 2.5,3.6 5.6,7.1 9.1,10.4 3.5,3.3 7.5,6.3 11.8,9.2 1.5,1 3,1.9 4.6,2.9 7.4,4.3 14.8,7.7 21.9,10.2 v 0 c 4.5,1.5 8.8,2.8 13,3.6 4.2,0.8 8.2,1.2 12.1,1.1 5.2,-0.1 10.2,-0.7 14.9,-1.8 4.7,-1 9.1,-2.5 13.1,-4.2 8.1,-3.4 14.8,-8 19.9,-13.2 1,-1.1 2,-2.2 2.9,-3.3 v 0 c 3.4,-4.2 6,-8.7 7.9,-13.1 1.9,-4.4 3,-8.7 3.7,-12.5 1,-5.6 1,-10.2 1.3,-13.2 0.4,-4.5 0.6,-9.7 0.1,-15.5 -0.3,-3.6 -1.1,-7.4 -2.5,-11.4 -1.4,-3.9 -3.4,-7.9 -5.9,-11.7 -2.5,-3.7 -5.6,-7.3 -9.1,-10.6 -3.5,-3.3 -7.4,-6.3 -11.5,-8.9 -4.7,-3 -9.7,-5.5 -14.7,-7.5 -5,-2 -10.1,-3.4 -15,-4.4 -5,-1 -9.8,-1.5 -14.1,-1.6 -4.3,-0.1 -8.2,0 -11.3,0.3 -3.2,0.3 -5.7,0.7 -7.4,1 -1.9,0.5 -2.8,0.7 -2.8,0.7 z"
         class="st13"
         inkscape:connector-curvature="0"
         id="path56" /><path
         d="m 440.9,231.1 c -10.5,0 -15.4,12.5 -15.4,22.7 0,10.2 4.1,19.5 14.7,19.5 10.5,0 20.5,-10.4 20.5,-20.6 0,-10.2 -9.2,-21.6 -19.8,-21.6 z"
         inkscape:connector-curvature="0"
         id="path58" /><path
         d="m 344.5,272.5 c -10.5,0 -22,11.1 -22,21.3 0,10.2 7.1,20.6 17.6,20.6 10.5,0 20.5,-10.4 20.5,-20.6 0,-10.2 -5.6,-21.3 -16.1,-21.3 z"
         inkscape:connector-curvature="0"
         id="path60" /><path
         style="fill:#ffffff"
         d="m 455.8,239.4 c -4,0 -5,6.1 -5,10 0,3.9 3.4,6.9 7.4,6.9 4,0 5.1,-4.8 5.1,-8.7 0,-3.9 -3.5,-8.2 -7.5,-8.2 z"
         class="st12"
         inkscape:connector-curvature="0"
         id="path68" /><path
         style="fill:#ffffff"
         d="m 354.9,275.9 c -3.5,0 -5.4,7 -5.4,10.3 0,3.3 2.3,6.8 5.8,6.8 3.5,0 6.7,-3.4 6.7,-6.8 0,-3.4 -3.7,-10.3 -7.1,-10.3 z"
         class="st12"
         inkscape:connector-curvature="0"
         id="path66" /></g><g
       transform="matrix(0.41849382,-0.04666924,0.03688415,0.52951699,142.71812,185.97687)"
       id="g62"><g
         transform="matrix(0.69294317,-0.35009489,0.31231607,0.77676395,-91.02864,123.85411)"
         id="g69"><path
           style="fill:#5a7997;stroke-width:1.37441075"
           d="m 403.60823,515.01627 -15.65255,-51.43411 -11.91891,-31.70235 -38.77237,-44.85686 40.20838,-3.94636 19.38619,46.17231 23.83782,36.30644 10.4829,14.46995 6.74927,19.73176"
           class="st6"
           inkscape:connector-curvature="0"
           id="path34" /><path
           style="fill:#295f9a;stroke-width:1.37441075"
           d="m 331.37674,381.76114 46.09604,50.25021 11.91892,31.70236 15.65254,51.43411 8.61609,-3.81481 -14.50374,-47.6193 -11.91891,-31.70236 -45.23443,-46.4354 z"
           class="st5"
           inkscape:connector-curvature="0"
           id="path36" /><path
           style="fill:#c7d6e5;stroke-width:1.37441075"
           d="m 379.91401,383.73432 -2.29763,2.10472 17.23217,46.69849 23.83782,36.30643 10.4829,14.46996 6.46207,19.20557 4.59524,-2.10472 -6.74927,-19.73175 -10.48289,-14.46996 -23.83783,-36.30643 z"
           class="st7"
           inkscape:connector-curvature="0"
           id="path38" /><path
           style="stroke-width:1.37441075"
           d="m 404.18264,519.4888 c 0,0 -8.75969,-19.99484 -13.64213,-36.04334 -1.43602,-4.47253 -2.72843,-8.55043 -3.30283,-11.83905 -0.57441,-3.02554 -1.72322,-9.99742 -4.59525,-16.96931 -0.4308,-0.92082 -0.86161,-1.84163 -1.29241,-2.76245 -1.72322,-3.42017 -4.16444,-7.10343 -6.89287,-11.31287 -2.87202,-4.0779 -6.03125,-8.68197 -9.90849,-13.54914 -1.00521,-1.31545 -2.15402,-2.76245 -3.15923,-4.20944 -10.0521,-13.68069 -17.80657,-23.80966 -23.11982,-31.04463 -3.44643,-4.60408 -6.03126,-8.02425 -7.75447,-10.39206 -0.86161,-1.31545 -1.57962,-2.23627 -2.01042,-2.76245 -0.28721,-0.26309 -0.43081,-0.52618 -0.57441,-0.78927 0,-0.13154 -0.1436,-0.13154 -0.1436,-0.13154 v 0 0 0 c 1.57962,-1.18391 2.44122,-1.71009 2.58482,-1.71009 v 0 0 0 0 0 0 c 0,0 -0.8616,0.65773 -2.44122,1.71009 v 0 0 0 l 0.1436,0.13154 c 0.1436,0.13155 0.43081,0.39464 0.71801,0.65773 0.57441,0.52618 1.43601,1.31545 2.72843,2.36781 2.15402,1.97317 5.45685,4.99871 9.76489,9.20815 6.60566,6.44571 15.93975,15.65386 27.71506,28.28219 1.29241,1.31545 2.44122,2.76244 3.59004,4.07789 2.15402,2.6309 3.87723,5.39335 5.31325,7.89271 1.43601,2.6309 2.58482,5.13025 3.44643,7.49806 1.86682,4.73562 3.01563,8.94507 4.45164,12.62833 0.43081,1.05236 0.86161,1.97317 1.29241,2.89399 1.72322,3.55171 3.87724,6.57725 5.88766,9.3397 1.86682,2.6309 3.59003,4.86716 4.16444,6.31416 1.29241,3.15708 2.58482,7.36652 3.59003,12.10214 2.44123,16.31159 3.44644,38.41115 3.44644,38.41115 z"
           inkscape:connector-curvature="0"
           id="path62" /><path
           style="stroke-width:1.37441075"
           d="m 371.29792,369.39591 c 0,0 9.04689,14.73304 15.50895,28.28218 2.72843,5.39335 5.02605,10.65515 6.03126,14.6015 0.5744,1.97318 1.43601,5.5249 3.01563,9.73434 v 0 c 0.718,1.97317 1.57961,3.94635 2.58482,5.91952 1.86682,3.55172 4.59525,7.49807 8.32888,11.57597 4.16444,4.73562 9.04689,10.39206 13.78573,17.75858 20.6786,31.17617 28.43307,44.06759 28.43307,44.06759 v 0 c -1.86682,1.05236 -2.72842,1.44699 -2.72842,1.44699 0,0 0.8616,-0.52618 2.72842,-1.44699 v 0 c 0,0 -11.34451,-11.04979 -36.04394,-39.98969 -5.74406,-6.7088 -9.33409,-13.15451 -12.06252,-18.6794 -2.72842,-5.13026 -4.16443,-9.73433 -6.31846,-13.28605 -1.14881,-1.97318 -2.44122,-3.68326 -3.87723,-5.39335 v 0 c -3.01563,-3.68326 -6.03126,-6.57725 -7.03647,-8.28733 -2.01042,-3.68327 -4.02084,-9.07661 -5.60045,-14.99614 -3.87724,-14.33841 -6.74927,-31.30772 -6.74927,-31.30772 z"
           inkscape:connector-curvature="0"
           id="path64" /></g></g><path
       style="stroke:#000000;stroke-width:0.54763126"
       d="m 303.96407,373.90814 c 0,0 4.94758,-8.32795 7.09945,-10.14493 2.15188,-1.81699 5.22591,-4.43213 5.22591,-4.43213 0,0 -9.47041,-12.18099 -13.78362,-5.05904 -4.22485,7.19507 1.45826,19.6361 1.45826,19.6361 z"
       class="st13"
       inkscape:connector-curvature="0"
       id="path40" /></g></svg>