<?xml version="1.0" encoding="UTF-8" standalone="no"?>
<!-- Generator: Adobe Illustrator 21.1.0, SVG Export Plug-In . SVG Version: 6.00 Build 0)  -->

<svg
   xmlns:dc="http://purl.org/dc/elements/1.1/"
   xmlns:cc="http://creativecommons.org/ns#"
   xmlns:rdf="http://www.w3.org/1999/02/22-rdf-syntax-ns#"
   xmlns:svg="http://www.w3.org/2000/svg"
   xmlns="http://www.w3.org/2000/svg"
   xmlns:sodipodi="http://sodipodi.sourceforge.net/DTD/sodipodi-0.dtd"
   xmlns:inkscape="http://www.inkscape.org/namespaces/inkscape"
   version="1.1"
   id="svg2"
   inkscape:export-filename="flytype-black-32.png"
   inkscape:export-xdpi="5.9989371"
   inkscape:export-ydpi="5.9989371"
   inkscape:version="0.92.1 r15371"
   sodipodi:docname="flytype-black.svg"
   x="0px"
   y="0px"
   viewBox="0 0 454.46034 454.46034"
   xml:space="preserve"
   width="484.75769"
   height="484.75769"><metadata
     id="metadata55"><rdf:RDF><cc:Work
         rdf:about=""><dc:format>image/svg+xml</dc:format><dc:type
           rdf:resource="http://purl.org/dc/dcmitype/StillImage" /><dc:title /></cc:Work></rdf:RDF></metadata><defs
     id="defs53" /><sodipodi:namedview
     pagecolor="#ffffff"
     bordercolor="#666666"
     borderopacity="1"
     objecttolerance="10"
     gridtolerance="10"
     guidetolerance="10"
     inkscape:pageopacity="0"
     inkscape:pageshadow="2"
     inkscape:window-width="1366"
     inkscape:window-height="671"
     id="namedview51"
     showgrid="false"
     inkscape:zoom="1.6944444"
     inkscape:cx="327.86501"
     inkscape:cy="174.48868"
     inkscape:window-x="0"
     inkscape:window-y="27"
     inkscape:window-maximized="1"
     inkscape:current-layer="svg2"
     showguides="true"
     inkscape:guide-bbox="true"><inkscape:grid
       type="xygrid"
       id="grid64"
       originx="-192.67261"
       originy="9.5933644" /><sodipodi:guide
       position="396.94584,-116.97079"
       orientation="0,1"
       id="guide1733"
       inkscape:locked="false" /></sodipodi:namedview><style
     type="text/css"
     id="style2">
	.st0{fill:none;stroke:#000000;stroke-width:7.7492;}
	.st1{fill:none;stroke:#000000;stroke-width:6.8964;}
	.st2{fill:#FFF1F1;}
	.st3{fill:#FFD6D6;}
	.st4{stroke:#000000;stroke-width:0.8649;}
	.st5{fill:#295F9A;}
	.st6{fill:#5A7997;}
	.st7{fill:#C7D6E5;}
	.st8{stroke:#000000;stroke-width:0.7;}
	.st9{display:none;}
	.st10{display:inline;fill:#5A9761;stroke:#000000;stroke-width:3;}
	.st11{fill:#D9DEE6;}
	.st12{fill:#FFFFFF;}
	.st13{stroke:#000000;}
</style><g
     id="Macchie"
     class="st9"
     style="display:none"
     transform="translate(-192.67261,-95.133047)"><path
       id="path70"
       inkscape:connector-curvature="0"
       class="st10"
       d="m 230.1,375.5 c -7.1,0 -10.3,9.3 -8.7,15.3 1.9,7.1 5.8,11.2 12.9,11.2 7.1,0 12.9,-5 12.9,-11.2 0,-6.2 -10,-15.3 -17.1,-15.3 z"
       style="display:inline;fill:#5a9761;stroke:#000000;stroke-width:3" /><path
       id="path72"
       inkscape:connector-curvature="0"
       class="st10"
       d="m 267.2,384.6 c -3.3,0 -6.8,2.3 -6.1,5.1 0.9,3.3 2.7,5.2 6,5.2 3.3,0 6,-2.3 6,-5.2 -0.1,-2.9 -2.6,-5.1 -5.9,-5.1 z"
       style="display:inline;fill:#5a9761;stroke:#000000;stroke-width:3" /><path
       id="path74"
       inkscape:connector-curvature="0"
       class="st10"
       d="m 256.7,401.8 c -3.3,0 -6.5,4.8 -5.7,7.6 0.9,3.3 2.7,5.2 6,5.2 3.3,0 6,-2.3 6,-5.2 0,-2.9 -3,-7.6 -6.3,-7.6 z"
       style="display:inline;fill:#5a9761;stroke:#000000;stroke-width:3" /></g><path
     style="fill:#ffffff"
     d="m 469.69531,275.71926 c -4,0 -5,6.1 -5,10 0,3.9 3.4,6.9 7.4,6.9 4,0 5.1,-4.8 5.1,-8.7 0,-3.9 -3.5,-8.2 -7.5,-8.2 z"
     class="st12"
     inkscape:connector-curvature="0"
     id="path68" /><path
     style="fill:#000000;stroke:#000000;stroke-width:0.74666667"
     d="M 261.00586 129.39648 C 254.30065 129.3569 247.97602 129.68151 242.10938 130.21484 C 232.72271 131.06818 224.50786 132.45469 217.89453 134.05469 C 211.2812 135.65469 206.05516 137.14893 202.53516 138.32227 C 199.60452 139.21034 198.09227 139.76663 197.56445 139.96484 C 197.37378 140.01675 196.75131 140.18255 195.38867 140.45508 C 193.78867 140.77508 191.44219 141.415 188.24219 142.375 C 185.04219 143.335 181.09448 144.72138 176.50781 146.74805 C 171.92115 148.77471 166.69555 151.44094 160.93555 154.96094 C 155.38888 158.2676 149.41562 162.42807 143.01562 167.44141 C 136.61565 172.56141 130.00125 178.53497 123.28125 185.68164 C 117.84125 191.44164 112.40245 197.94859 107.17578 205.30859 C 101.94911 212.66859 96.935078 220.88135 92.455078 230.05469 C 88.508412 237.94802 85.095599 246.58794 82.322266 255.97461 C 79.655599 265.25461 77.5225 275.28255 76.5625 285.94922 C 75.6025 295.97589 76.455938 306.53495 79.335938 316.98828 C 82.109269 326.90828 86.374766 336.72271 92.134766 346.10938 C 97.681432 355.17602 104.40159 363.92219 112.29492 372.24219 C 120.08159 380.45552 129.04138 388.24276 138.74805 395.49609 C 142.16138 398.05609 145.57451 400.5088 149.20117 402.85547 C 166.16117 413.9488 183.65481 422.2693 200.82812 428.0293 C 211.60146 431.5493 222.37555 434.21565 232.93555 435.70898 C 243.17555 437.20232 253.41518 437.62797 263.22852 436.66797 C 275.60185 435.38797 287.22786 432.93482 297.89453 429.52148 C 308.66786 426.10815 318.37594 421.94919 327.33594 417.25586 C 336.4026 412.56253 344.61461 407.22906 351.97461 401.78906 C 359.33461 396.34906 365.94854 390.58812 371.92188 384.82812 C 374.48185 382.26815 377.04201 379.70844 379.38867 377.14844 C 387.70867 368.08177 394.85599 358.37539 400.72266 348.77539 C 406.58932 339.17539 411.06833 329.68221 414.375 320.93555 C 419.175 308.02888 421.52198 296.82799 422.69531 289.36133 C 423.86076 281.78594 424.50787 273.19994 424.30469 263.97461 C 406.32306 287.65731 375.15928 304.09975 348.0293 306.10938 C 334.32496 307.13515 319.87216 302.21117 307.45117 293.58984 C 293.67852 306.64507 275.40239 315.0204 256.08203 316.45508 C 220.45536 319.12174 164.24216 283.81526 167.54883 245.30859 C 170.85549 206.90859 203.49448 179.6026 224.50781 175.33594 C 251.19252 166.55807 279.25719 171.45789 299.9668 184.18555 C 315.73234 167.23682 335.20576 155.258 346.96094 154.32227 C 349.00384 154.16564 351.00292 154.04364 352.96289 153.95117 C 350.03718 152.2874 347.07578 150.69805 344.08203 149.20117 C 332.3487 143.33451 320.18885 138.96172 308.24219 135.76172 C 296.29552 132.56172 284.45542 130.74786 273.46875 129.89453 C 269.18875 129.57453 265.02898 129.42023 261.00586 129.39648 z M 223.55859 134.88672 C 214.1786 136.33763 204.7948 138.56274 195.49609 141.62891 C 191.49136 142.24502 187.41091 143.3409 183.26953 144.8125 C 185.13206 144.03333 186.83137 143.37788 188.34766 142.80273 C 191.44099 141.73607 193.78867 140.98917 195.38867 140.5625 C 196.85026 140.17274 197.41251 140.01028 197.53125 139.97656 C 197.43947 140.01111 197.0957 140.13477 197.0957 140.13477 C 197.0957 140.13477 199.01516 139.60258 202.53516 138.64258 C 206.05516 137.78924 211.38938 136.6143 218.10938 135.6543 C 219.83501 135.38038 221.65366 135.12347 223.55859 134.88672 z M 164.47852 154.9082 C 164.35238 155.02571 164.22437 155.13358 164.09961 155.25781 C 163.38679 155.66429 162.67146 156.09704 161.95703 156.52148 C 162.81731 155.95934 163.64393 155.43909 164.47852 154.9082 z M 131.08594 222.26172 C 131.3537 222.19356 130.70253 222.54003 131.08594 222.26172 z M 129.43164 224.21484 C 129.4806 224.22839 129.52699 224.25554 129.5625 224.28711 C 129.74071 227.50407 129.8574 230.72558 129.89648 233.94727 C 130.21977 246.15375 128.84125 258.33972 129.41797 270.54297 C 130.34608 292.95035 138.70027 315.13967 153.5625 332.0293 C 172.83487 353.66408 199.84244 367.60818 228.10742 373.14648 C 260.1119 379.16976 294.18498 376.02992 323.82031 362.16406 C 346.60665 351.06281 365.71259 334.1239 385.58398 318.69531 C 387.66103 315.91598 392.77755 315.38247 394.62109 318.68555 C 394.70237 323.59543 393.7862 328.49212 392.16602 333.11719 C 386.82949 346.52514 378.24839 358.43486 368.45508 368.94531 C 337.26117 402.70527 291.1832 421.92615 245.2793 420.83203 C 225.51639 420.29025 205.76835 416.25718 187.41797 408.83984 C 179.45831 405.34609 171.46924 401.3153 163.51172 396.70703 C 159.25263 394.0551 155.1207 391.19332 151.14453 388.11328 C 137.41546 377.03717 125.20835 363.88845 116.01562 348.78711 C 105.85906 332.32879 99.923738 313.1007 100.22461 293.68945 C 100.27346 267.95763 110.38636 241.95467 129.28711 224.22656 C 129.33276 224.20128 129.38269 224.2013 129.43164 224.21484 z "
     transform="scale(0.93750001)"
     id="path26" /><path
     style="fill:none;stroke:#000000;stroke-width:5.97450066"
     inkscape:connector-curvature="0"
     id="path4"
     d="m 218.59856,399.54236 c 0,0 -42.54031,16.5339 -42.37215,23.00399 0.0664,3.75903 11.06093,11.79383 20.20605,17.81317 6.58078,4.34968 -5.97947,11.50522 -5.97947,11.50522"
     class="st0" /><path
     style="fill:none;stroke:#000000;stroke-width:5.03616905"
     inkscape:connector-curvature="0"
     id="path6"
     d="m 155.34453,375.99755 c 0,0 -27.46771,4.92487 -31.40416,11.53963 -2.18692,3.66951 2.71178,13.66408 -0.34991,20.27885 -2.44935,5.26285 -13.03404,7.72528 -13.03404,7.72528"
     class="st0"
     inkscape:transform-center-x="-4.4893168"
     inkscape:transform-center-y="-4.4132444" /><path
     style="fill:none;stroke:#000000;stroke-width:5.96390963"
     inkscape:connector-curvature="0"
     id="path8"
     d="m 108.62845,333.69374 c -11.76419,3.21223 -33.50765,5.5484 -39.105779,14.89308 -3.245293,5.4024 -6.490585,19.41942 -14.03589,27.23099 -5.598129,5.76742 -16.469859,6.57048 -16.469859,6.57048"
     class="st0" /><path
     style="fill:none;stroke:#000000;stroke-width:6.89639997"
     inkscape:connector-curvature="0"
     id="path10"
     d="m 367.55547,317.10958 c 0,0 37.4,3.4 44.3,9.8 3.8,3.5 4.5,14.4 4.4,23.5 -0.1,7.5 11.3,11.4 11.3,11.4"
     class="st1" /><path
     style="fill:none;stroke:#000000;stroke-width:7.74919987"
     inkscape:connector-curvature="0"
     id="path12"
     d="m 365.17678,281.47679 c 0,0 25.5,-3 35.5,1.8 6.4,3.1 15.8,16.9 21.6,26.1 3.1,5 17.1,3.8 17.1,3.8"
     class="st0" /><path
     style="fill:#000000;stroke:#000000;stroke-width:0.72506154"
     d="M 77.181641 31.017578 C 76.881586 31.013914 76.551649 31.022741 76.195312 31.044922 C 73.746891 31.498089 72.028417 32.329037 70.898438 33.109375 C 68.745385 34.254161 66.833133 35.581702 65.091797 36.833984 C 60.03909 40.516075 55.648256 44.319199 51.511719 48.052734 C 46.754378 52.426442 42.413876 56.823794 38.494141 61.160156 C 36.71502 63.08535 35.013313 65.09958 33.474609 67.207031 C 32.297399 68.828507 31.032174 70.530042 30.085938 72.501953 C 29.139699 74.473915 28.449344 76.374824 27.845703 78.197266 C 27.037701 80.683265 26.311787 83.173516 25.591797 85.580078 C 24.249273 90.145536 23.170605 94.473892 22.101562 98.632812 C 21.771403 100.04872 21.353596 101.54308 21.023438 102.95898 C 19.624235 108.5338 18.396766 114.03394 17.349609 119.29102 C 16.9031 121.29104 16.622548 123.30104 16.337891 125.39453 C 16.212091 126.14688 16.170279 126.90301 16.123047 127.74414 C 16.094708 128.24882 16.051274 129.00616 16.253906 129.86133 C 16.594777 131.23053 17.117694 132.35672 17.658203 133.14648 C 18.434407 134.20262 19.214789 135.17549 19.921875 135.97461 C 21.812158 138.02147 23.722442 139.73216 25.5625 141.18555 C 28.452243 143.28853 30.935028 145.19966 33.103516 146.75586 C 34.236488 147.41013 35.210961 147.88736 36.103516 148.35938 C 56.965419 159.23441 93.244908 175.2781 124.16406 188.57422 C 155.08322 201.87034 180.73047 212.33789 180.73047 212.33789 C 180.73047 212.33789 156.17816 198.72501 126.57617 182.80273 C 111.73118 174.88131 95.577779 166.46435 80.46875 158.78125 C 65.443046 151.10282 51.452318 144.32709 40.851562 139.68164 C 39.954285 139.29374 38.890466 138.8962 37.748047 138.41016 C 35.727243 137.19976 33.21647 135.79272 30.376953 134.2832 C 28.596567 133.25506 26.826642 132.05913 25.148438 130.69922 C 24.510471 130.15712 23.871782 129.61477 23.400391 129.08203 C 23.007566 128.63807 22.771111 128.37213 22.697266 128.19922 C 22.609256 128.27865 22.624122 128.02486 22.564453 127.59961 C 22.514224 127.00614 22.464172 126.41314 22.501953 125.74023 C 22.517852 123.96916 22.62562 122.03554 22.822266 120.02148 C 23.276958 114.89991 24.088944 109.37596 25.238281 103.78711 C 25.563718 102.45532 25.811283 101.03491 26.136719 99.703125 C 27.122473 95.539528 28.288592 91.132148 29.792969 86.660156 C 30.591524 84.342386 31.394243 81.94123 32.359375 79.632812 C 33.124868 77.903838 33.801986 76.254518 34.724609 74.703125 C 35.559222 73.231168 36.635665 71.940785 37.886719 70.492188 C 39.489817 68.725869 41.176334 66.96518 43.029297 65.212891 C 47.087269 61.390564 51.56536 57.506156 56.460938 53.646484 C 60.661871 50.25408 65.113728 46.876085 69.966797 43.773438 C 71.698687 42.689382 73.346733 41.601246 75.064453 40.769531 C 75.862755 40.421129 76.457823 40.112446 76.900391 39.943359 C 77.006091 39.990988 77.127179 40.049478 77.271484 40.132812 C 78.247328 40.609503 79.381077 41.26462 80.587891 42.091797 C 84.296325 44.49389 87.982129 47.317475 91.912109 50.238281 C 95.116111 52.696427 98.40254 55.159195 101.76367 57.794922 C 110.01174 64.164603 117.76066 70.505173 125.02344 76.566406 C 137.94935 87.417643 149.50628 97.34946 159.43555 106.51367 C 164.2014 110.91586 168.73129 115.05045 172.76172 119.1582 C 174.50432 120.85926 176.08023 122.5505 177.65625 124.24219 C 178.83472 125.57405 180.01821 126.82189 181.02539 128.22852 C 185.53493 134.21951 188.9666 140.06608 191.83398 145.54297 C 194.70138 151.01985 196.925 156.03977 198.84961 160.45117 C 200.41714 164.12163 201.68764 167.3772 202.76758 170.29883 A 31.089514 45.486669 0 0 1 203.84766 169.66016 C 202.97454 166.76644 201.93735 163.54976 200.63281 159.95898 C 199.05081 155.39807 197.08578 150.22497 194.48242 144.50977 C 191.87906 138.79457 188.6377 132.53893 184.31836 126.13672 C 183.23734 124.5572 182.06828 123.0566 180.89453 121.64062 C 179.41124 119.78538 177.84405 117.92501 176.18945 116.14453 C 172.25176 111.87322 167.90737 107.41079 163.32227 102.76562 C 153.67593 93.026648 142.56877 82.529535 129.92578 71.103516 C 122.84848 64.715198 115.36886 58.051327 107.23242 51.181641 C 103.96403 48.382363 100.68491 45.752015 97.402344 43.205078 C 93.477087 40.200158 89.552941 37.195268 85.4375 34.601562 C 84.152149 33.685597 82.694385 32.844572 81.066406 32.078125 C 80.497558 31.793046 79.84492 31.502106 79.021484 31.287109 C 78.716238 31.143397 78.081806 31.02857 77.181641 31.017578 z M 76.621094 39.84375 C 76.634661 39.844512 76.675468 39.863438 76.697266 39.869141 C 76.557931 39.882892 76.534792 39.881416 76.621094 39.84375 z "
     transform="scale(0.93750001)"
     id="Contorno" /><path
     id="Bordo_Est"
     inkscape:connector-curvature="0"
     class="st4"
     d="m 257.95935,159.16907 v 0 c 0,0 0.004,-0.0789 0,0 v 0 c 0.004,-0.0789 0.004,-0.0789 0.009,-0.15772 0.004,-0.0789 0.0133,-0.23657 0.0958,-0.31104 0.0958,-0.31104 0.12236,-0.78418 0.30952,-1.32741 0.21816,-1.09522 0.5454,-2.73806 0.97728,-4.84965 0.76355,-3.83329 1.83663,-8.99398 2.9717,-15.25867 0.91248,-5.0906 2.01212,-10.72444 2.89966,-16.76571 0.28015,-2.19922 0.64281,-4.47291 0.76679,-6.68089 0.0886,-1.57714 0.24192,-2.91332 0.0652,-3.95161 v 0 c -0.0382,-0.71409 -0.2282,-1.51581 -0.33566,-2.392 -0.23262,-1.43696 -0.46525,-2.87392 -0.69788,-4.31088 -0.7023,-4.232013 -1.47827,-8.547273 -2.2498,-12.941388 -2.20272,-12.385019 -4.48352,-24.774415 -6.23265,-35.472745 -1.06453,-6.150885 -1.93024,-11.657764 -2.52347,-16.437394 -0.56385,-3.907822 -1.37643,-10.36098 -2.81647,-18.194163 -0.65522,-3.675637 -1.45332,-7.596613 -2.56818,-11.4562705 -0.32842,-1.1259167 -0.65684,-2.2518328 -1.15029,-3.2288047 -0.13845,-0.3241958 -0.28133,-0.5695349 -0.35056,-0.7316328 -0.15174,-0.087626 -0.0736,-0.083241 0.22539,0.170867 -0.0737,-0.083241 -0.3079,-0.096395 -0.6158,-0.1927897 -0.46407,-0.105164 -1.08873,-0.1402404 -1.63974,-0.092076 -1.17567,0.013089 -2.35576,0.1050335 -3.54029,0.2758353 -0.55101,0.048165 -1.10644,0.1751863 -1.73553,0.2189666 -4.50385,0.6963606 -9.35546,2.0060371 -14.45902,3.6179859 -4.62622,1.4805439 -9.50439,3.2633589 -14.56087,5.4316889 -1.84461,0.766579 -3.69365,1.612015 -5.46903,2.540691 -1.21109,0.643942 -2.33968,1.213412 -3.08227,1.883661 -0.33004,0.297888 -0.7426,0.670249 -1.15958,1.121466 v 0 c -0.58643,0.679018 -1.25094,1.353652 -1.91546,2.028285 -1.67678,1.962583 -3.35799,4.004022 -5.12171,6.119933 -4.20524,5.143026 -8.51071,10.675951 -13.15064,16.58562 -3.11932,3.938319 -6.24749,8.03435 -9.54511,12.358183 -0.93419,1.292333 -1.94646,2.580282 -2.88064,3.872615 -1.44254,1.975736 -2.80256,3.877 -3.92391,5.712561 -0.42584,0.608931 -0.77359,1.222246 -1.03883,1.761089 -0.18274,0.464371 -0.26082,0.459986 -0.0781,-0.0044 -0.007,-1.266091 -0.0588,-1.743615 -0.072,-1.507045 -0.004,0.07886 0.0648,0.240954 0.28576,0.490678 0.49787,0.898115 1.14748,1.883856 1.87074,2.952838 2.38633,3.535527 4.93768,6.922116 7.41537,10.225457 4.30134,5.699799 8.46424,11.075402 12.41502,16.043568 3.95079,4.96816 7.60253,9.68221 11.04216,13.98883 5.19406,6.54098 9.7208,12.41165 13.74081,17.54191 4.01559,5.20912 7.44636,9.67346 10.28347,13.55072 1.82365,2.39646 3.42192,4.62205 4.80365,6.51906 1.37729,1.97586 2.53806,3.62315 3.55151,5.10395 1.08268,1.6429 2.01805,3.11932 2.58515,4.17954 0.35499,0.65277 0.63632,1.22231 0.84401,1.7086 0.2121,0.40744 0.34613,0.81049 0.4065,1.1303 0.0604,0.31981 0.1296,0.48191 0.1296,0.48191 0,0 -0.0692,-0.1621 -0.13403,-0.40305 -0.14288,-0.24534 -0.27691,-0.64839 -0.48901,-1.05583 -0.29019,-0.41182 -0.57153,-0.98136 -1.00903,-1.55966 -0.72326,-1.06898 -1.66749,-2.38769 -2.91076,-3.9605 -1.09597,-1.40633 -2.41732,-2.98353 -3.95965,-4.81046 -1.54232,-1.82692 -3.3056,-3.90356 -5.29428,-6.15108 -3.16272,-3.65823 -6.84103,-7.89914 -11.18666,-12.81038 -4.34562,-4.91123 -9.28492,-10.40953 -14.80902,-16.65262 -3.68273,-4.16206 -7.58643,-8.57385 -11.85841,-13.40183 -4.19389,-4.823606 -8.68682,-9.901321 -13.30936,-15.460944 -2.72079,-3.158782 -5.50639,-6.558518 -8.20061,-10.190452 -0.80135,-1.073361 -1.6027,-2.146728 -2.39076,-3.456664 -0.2121,-0.407437 -0.49787,-0.898116 -0.7792,-1.46765 v 0 c -0.22539,-0.170867 -0.34171,-0.889347 -0.34451,-2.234294 0.22258,-1.174081 0.50111,-1.949494 0.7575,-2.330624 0.36104,-0.849885 0.80016,-1.695386 1.23042,-2.383173 1.22157,-2.22546 2.59045,-4.284437 3.95933,-6.343414 0.86053,-1.375575 1.79915,-2.746765 2.73776,-4.117955 3.15474,-4.569171 6.29177,-8.822917 9.41109,-12.761235 4.64436,-5.988526 9.33581,-11.420672 13.84452,-16.388446 1.91989,-2.107142 3.83092,-4.056571 5.74195,-6.006 0.74703,-0.749105 1.48962,-1.419354 2.31473,-2.164076 v 0 c 0.57315,-0.442448 1.15515,-1.042609 1.88889,-1.555145 1.54999,-1.099544 3.07342,-1.725947 4.43625,-2.282263 2.08328,-0.8322825 4.16214,-1.5857075 6.15406,-2.1858038 5.42475,-1.752124 10.58869,-3.0442622 15.43144,-4.1962247 5.3201,-1.2833685 10.31016,-2.2688485 15.05711,-3.1097689 0.63352,-0.12263691 1.34512,-0.2408893 1.97421,-0.28466957 1.26261,-0.1664172 2.52522,-0.33283443 3.7834,-0.42039496 0.70717,-0.0393957 1.49242,-0.0744069 2.26882,0.0482953 0.54658,0.0306918 1.2449,0.14900947 2.00801,0.50828166 0.68061,0.43374427 1.13139,0.77547827 1.26985,1.09967397 0.36384,0.4950628 0.65403,0.9068843 0.86614,1.3143213 0.71441,1.2266956 1.19014,2.5190941 1.67472,3.6537793 1.65259,4.0480644 2.99727,7.9997314 4.20793,11.5483474 2.62456,7.66238 4.77782,13.953506 5.58035,17.795625 1.06616,4.727081 2.0836,10.321585 3.06562,16.546943 1.7447,10.777186 3.2314,23.359307 4.55749,36.011522 0.45921,4.376578 0.8359,8.827628 1.21702,13.199808 0.15012,1.51143 0.22215,3.01848 0.29418,4.52553 0.0294,0.8718 0.13241,1.82685 0.0793,2.77313 v 0 c -0.0238,1.81809 -0.27292,3.46531 -0.59572,5.02929 -0.44517,2.34816 -0.96843,4.69194 -1.56091,6.87362 -1.51662,6.08505 -3.24093,11.68381 -4.76922,16.58163 -1.90704,6.06313 -3.60477,11.18874 -4.90605,14.83362 -0.66171,2.01959 -1.21876,3.57041 -1.59309,4.65687 -0.18716,0.54322 -0.36989,1.0076 -0.46569,1.31864 -0.0869,0.15333 -0.0914,0.23218 -0.0958,0.31104 0.0737,0.0832 0.0737,0.0832 0.0692,0.1621 0.004,-0.0789 0,0 0,0 z"
     style="stroke:#000000;stroke-width:0.6797452;fill:#000000" /><path
     style="stroke:#000000;stroke-width:1.0666666;fill:#000000"
     d="M 365.83984 153.44531 C 362.21484 153.47531 358.93477 153.65453 356.13477 153.89453 C 354.97855 153.99364 354.03586 154.08763 353.0293 154.18359 C 351.40659 154.17039 349.78393 154.16836 348.16211 154.17773 C 345.28885 154.39537 342.45306 154.89262 339.6582 155.57227 C 339.24785 155.65309 338.9013 155.70922 338.42773 155.81445 C 336.50773 156.24112 334.16276 156.88255 331.49609 157.94922 C 331.21746 158.06067 330.91651 158.19005 330.62891 158.30859 C 327.04607 159.47872 323.39378 160.6018 319.5957 160.60547 C 318.60415 160.53087 317.612 160.31111 316.61523 160.43164 C 315.69449 160.90225 315.19447 161.92985 315.11133 162.92773 C 315.59878 161.97663 316.86973 161.94517 317.76562 162.23438 C 319.1547 162.63265 320.57514 162.66779 321.99023 162.52344 C 318.80616 164.29402 315.17925 166.52184 311.44141 169.14844 C 307.49474 172.02844 303.2288 175.33534 298.85547 179.38867 C 297.28531 180.8607 295.69219 182.41084 294.09766 184.03906 L 301.19531 184.03906 C 301.62474 183.55411 302.05671 183.05922 302.48242 182.58789 C 306.32242 178.42789 310.1624 174.80232 313.78906 171.70898 C 317.30906 168.61565 320.82854 166.05596 323.92188 164.0293 C 325.64913 162.85722 327.29621 161.84133 328.88086 160.93359 C 333.79927 159.39797 338.57824 157.3685 343.68164 156.50781 C 347.56668 155.8221 351.53293 155.92416 355.45898 156.05859 C 358.06893 156.17275 360.67356 156.36912 363.2793 156.55469 C 364.14647 156.65819 365.02354 156.76432 365.93945 156.88672 C 370.855 157.74858 375.78045 158.56959 380.67578 159.53906 C 382.39961 159.95544 384.13722 160.40504 385.89453 160.93555 C 390.4812 162.32221 395.06883 164.02878 399.54883 166.16211 C 404.02883 168.40211 408.29477 171.06953 412.13477 174.26953 C 418.32143 179.4962 423.12271 186.32208 426.10938 193.46875 C 429.52269 201.57542 430.80141 210.2144 431.44141 218.42773 C 431.76141 223.22773 431.33456 227.81536 430.58789 232.08203 C 429.84122 236.24203 428.7749 240.08276 427.60156 243.49609 C 427.1749 244.77609 426.74935 246.37612 426.10938 248.18945 C 424.93604 251.70945 423.22917 256.29526 420.5625 261.30859 C 417.78917 266.21526 414.05586 271.65539 409.25586 276.77539 C 406.58919 279.65539 403.60234 282.32206 400.40234 284.77539 C 394.64234 289.14872 387.70823 292.88128 379.60156 295.97461 C 374.90823 297.78794 369.78841 299.28174 364.45508 300.45508 C 359.01508 301.62841 353.36201 302.37576 347.38867 302.48242 C 339.81534 302.69576 331.60276 300.77586 323.49609 297.25586 C 319.25247 295.45377 315.07618 293.15906 310.97656 290.42383 A 44.4434 51.328999 0 0 1 302.13867 300.54492 C 307.10677 303.99006 312.33344 306.77666 317.62891 308.88281 C 322.64224 310.90948 327.76281 312.29435 332.88281 313.04102 C 338.00281 313.78768 343.01445 313.89466 347.81445 313.36133 C 354.64112 312.61466 360.82789 311.0157 366.58789 309.0957 C 372.34789 307.1757 377.46953 304.93576 382.26953 302.48242 C 390.26953 298.42909 397.20201 294.05497 403.38867 289.68164 C 407.01534 287.12164 410.42891 284.45573 413.62891 281.78906 C 419.28224 276.98906 424.29508 271.97503 428.45508 267.06836 C 432.61508 262.16169 435.81469 257.46815 438.05469 253.52148 C 439.22802 251.60148 440.08148 249.68279 440.82812 248.18945 C 442.74812 244.13612 444.34859 239.33529 445.30859 234.00195 C 446.26859 228.66862 446.58922 222.8019 445.94922 216.61523 C 444.88255 207.33523 442.42935 197.0949 437.41602 187.60156 C 435.17602 183.22823 432.29495 179.17549 428.98828 175.54883 C 425.68161 171.92216 421.8424 168.61589 417.78906 165.94922 C 412.77573 162.64255 407.54818 160.08167 402.21484 158.375 C 396.88151 156.66833 391.65471 155.49471 386.74805 154.74805 C 380.56138 153.89471 374.69617 153.57542 369.57617 153.46875 C 368.29617 153.44208 367.04818 153.43531 365.83984 153.44531 z "
     transform="scale(0.93750001)"
     id="path32" /><path
     style="stroke:#000000"
     d="m 209.77678,163.77679 c 0,0 0.9,-0.4 2.5,-0.9 1.6,-0.5 4.1,-1.4 7.2,-2.2 3.1,-0.8 7,-1.6 11.4,-2.1 4.4,-0.5 9.5,-0.7 14.9,-0.4 5.3,0.3 10.9,1.1 16.6,2.5 5.7,1.4 11.6,3.5 17.2,6.2 4.9,2.4 9.7,5.3 14.2,8.7 4.4,3.4 8.5,7.3 12,11.6 3.6,4.4 6.4,9.2 8.5,14.1 2.1,4.9 3.4,10 3.9,14.9 0.7,6.9 0.2,13.2 -0.8,18.6 -0.7,3.6 -2.1,8.9 -4.6,15 -1.7,4.1 -4,8.6 -6.9,13 -2.9,4.5 -6.4,9 -10.4,13.2 v 0 c -1.1,1.2 -2.3,2.4 -3.5,3.6 -2.8,2.7 -5.9,5.4 -9.3,8 -3.4,2.6 -7.2,5.1 -11.3,7.5 -4.2,2.3 -8.8,4.5 -13.8,6.2 -5.1,1.8 -10.6,3.1 -16.5,3.8 -4.8,0.5 -9.8,0.5 -14.9,-0.2 -5.1,-0.6 -10.2,-1.8 -15.3,-3.5 v 0 c -8.2,-2.7 -16.6,-6.6 -24.6,-11.9 -1.7,-1.1 -3.3,-2.3 -4.9,-3.5 -4.6,-3.4 -8.8,-7.2 -12.6,-11.2 -3.7,-4 -7,-8.2 -9.6,-12.6 -2.7,-4.5 -4.8,-9.3 -6.1,-14.2 -1.4,-5.1 -1.8,-10.3 -1.3,-15.3 0.6,-5.5 1.7,-10.6 3.2,-15.3 1.5,-4.7 3.4,-9 5.5,-13 4.2,-7.9 9.1,-14.2 13.9,-19.3 3.2,-3.4 6.4,-6.2 9.4,-8.5 3,-2.4 5.9,-4.3 8.6,-5.8 2.7,-1.6 5.3,-2.9 7.5,-3.9 2.2,-1 4.1,-1.6 5.7,-2.1 1.5,-0.5 2.7,-0.7 3.5,-0.9 0.8,-0.2 1.2,-0.2 1.2,-0.2 0,0 -0.4,0.1 -1.1,0.3 -0.8,0.2 -1.9,0.6 -3.4,1.2 -1.5,0.6 -3.3,1.4 -5.4,2.6 -2.1,1.1 -4.4,2.6 -6.9,4.4 -4.8,3.5 -10.5,8.4 -16.1,15.4 -4.2,5.2 -8.3,11.6 -11.6,19.2 -1.6,3.8 -3.1,8 -4.1,12.4 -1.1,4.4 -1.7,9.1 -1.9,14.1 -0.1,4.1 0.6,8.3 2,12.4 1.4,4 3.4,7.8 6,11.6 2.5,3.6 5.6,7.1 9.1,10.4 3.5,3.3 7.5,6.3 11.8,9.2 1.5,1 3,1.9 4.6,2.9 7.4,4.3 14.8,7.7 21.9,10.2 v 0 c 4.5,1.5 8.8,2.8 13,3.6 4.2,0.8 8.2,1.2 12.1,1.1 5.2,-0.1 10.2,-0.7 14.9,-1.8 4.7,-1 9.1,-2.5 13.1,-4.2 8.1,-3.4 14.8,-8 19.9,-13.2 1,-1.1 2,-2.2 2.9,-3.3 v 0 c 3.4,-4.2 6,-8.7 7.9,-13.1 1.9,-4.4 3,-8.7 3.7,-12.5 1,-5.6 1,-10.2 1.3,-13.2 0.4,-4.5 0.6,-9.7 0.1,-15.5 -0.3,-3.6 -1.1,-7.4 -2.5,-11.4 -1.4,-3.9 -3.4,-7.9 -5.9,-11.7 -2.5,-3.7 -5.6,-7.3 -9.1,-10.6 -3.5,-3.3 -7.4,-6.3 -11.5,-8.9 -4.7,-3 -9.7,-5.5 -14.7,-7.5 -5,-2 -10.1,-3.4 -15,-4.4 -5,-1 -9.8,-1.5 -14.1,-1.6 -4.3,-0.1 -8.2,0 -11.3,0.3 -3.2,0.3 -5.7,0.7 -7.4,1 -1.9,0.5 -2.8,0.7 -2.8,0.7 z"
     class="st13"
     inkscape:connector-curvature="0"
     id="path56" /><path
     d="m 363.67678,171.37679 c -10.5,0 -15.4,12.5 -15.4,22.7 0,10.2 4.1,19.5 14.7,19.5 10.5,0 20.5,-10.4 20.5,-20.6 0,-10.2 -9.2,-21.6 -19.8,-21.6 z"
     inkscape:connector-curvature="0"
     id="path58" /><path
     d="m 267.27678,212.77679 c -10.5,0 -22,11.1 -22,21.3 0,10.2 7.1,20.6 17.6,20.6 10.5,0 20.5,-10.4 20.5,-20.6 0,-10.2 -5.6,-21.3 -16.1,-21.3 z"
     inkscape:connector-curvature="0"
     id="path60" /></svg>